M48
;Layer_Color=9474304
;FILE_FORMAT=4:4
METRIC,TZ
;TYPE=PLATED
T01F00S00C0.3000
T02F00S00C0.4000
T04F00S00C0.9000
T05F00S00C1.0000
T06F00S00C1.6000
%
T01
X9000Y44000
X17000Y44000
X25000Y44000
X33000Y44000
X41000Y44000
X118000Y53000
X161000Y66000
X161501Y87400
X137000Y97000
X137000Y107750
X137000Y118500
X137000Y129250
X137000Y140000
X118000Y139000
X118000Y148000
X118000Y130000
X99000Y103000
X180168Y109269
X177600Y131500
X180000Y156000
X195000Y157000
X209000Y141000
X209000Y131000
X209000Y121000
X209000Y111000
X219000Y111000
X229000Y111000
X239000Y111000
X239000Y121000
X239000Y131000
X229000Y131000
X219000Y131000
X219000Y121000
X229000Y121000
X229000Y141000
X219000Y141000
X239000Y141000
X222000Y175000
X214000Y206000
X199000Y206500
X207000Y214500
X223000Y214500
X244671Y217672
X244000Y196000
X185000Y195000
X156000Y195000
X145000Y159000
X121000Y208501
X80000Y200000
X70000Y200000
X60000Y200000
X50000Y200000
X72000Y181000
X72000Y173000
X72000Y165000
X20000Y176000
X10000Y176000
X195000Y96000
X204402Y88000
X222000Y88000
X221000Y67000
X209000Y49000
X192000Y48000
X174000Y50000
X245000Y48000
X263000Y58000
X254566Y74177
X270000Y109292
X300000Y105000
X351000Y99000
X351000Y115000
X337000Y127000
X343000Y138000
X343000Y154000
X370000Y151000
X370000Y84000
X354384Y84300
X374000Y9000
X327000Y184000
X276000Y177000
X267000Y185000
X269000Y156000
X279000Y145000
X260000Y217000
X255098Y244428
X255000Y253000
X255000Y262000
X255000Y271000
X245000Y271000
X245000Y262000
X245000Y253000
X245098Y244428
X168098Y263428
X168000Y272000
X159000Y272000
X159098Y263428
X159000Y281000
X168000Y281000
X168000Y290000
X159000Y290000
X145000Y229000
T02
X80000Y131000
X70300Y237000
X70300Y245000
X70300Y253000
X70300Y261000
X70300Y269000
X70300Y277000
X70300Y285000
X70300Y293000
X63300Y289000
X63300Y281000
X63300Y273000
X63300Y257000
X63300Y249000
X63300Y241000
T04
X18300Y21000
X43700Y21000
X77300Y21000
X102700Y21000
X309000Y41000
X301560Y58960
X309000Y76921
X326960Y84361
X344921Y76921
X352360Y58960
X344921Y41000
X326960Y33561
X404000Y32400
X404000Y57800
X404000Y83200
X404000Y108600
X404000Y134000
X404000Y159400
T05
X260000Y322000
X285400Y322000
X310800Y322000
X234600Y322000
X209200Y322000
X183800Y322000
X158400Y322000
X133000Y322000
T06
X403000Y221200
X403000Y272000
M30
