G04*
G04 #@! TF.GenerationSoftware,Altium Limited,Altium Designer,24.7.2 (38)*
G04*
G04 Layer_Physical_Order=4*
G04 Layer_Color=16711680*
%FSLAX43Y43*%
%MOMM*%
G71*
G04*
G04 #@! TF.SameCoordinates,C90C3FF3-A15F-4F38-93B3-E15C1D2EA4E4*
G04*
G04*
G04 #@! TF.FilePolarity,Positive*
G04*
G01*
G75*
%ADD10C,0.200*%
%ADD12C,0.300*%
%ADD13C,0.150*%
%ADD14C,0.178*%
%ADD15C,0.127*%
%ADD16C,0.100*%
%ADD17C,0.350*%
%ADD18C,0.180*%
%ADD19R,1.020X0.610*%
%ADD20R,1.270X0.610*%
G04:AMPARAMS|DCode=24|XSize=0.9mm|YSize=0.8mm|CornerRadius=0.2mm|HoleSize=0mm|Usage=FLASHONLY|Rotation=270.000|XOffset=0mm|YOffset=0mm|HoleType=Round|Shape=RoundedRectangle|*
%AMROUNDEDRECTD24*
21,1,0.900,0.400,0,0,270.0*
21,1,0.500,0.800,0,0,270.0*
1,1,0.400,-0.200,-0.250*
1,1,0.400,-0.200,0.250*
1,1,0.400,0.200,0.250*
1,1,0.400,0.200,-0.250*
%
%ADD24ROUNDEDRECTD24*%
G04:AMPARAMS|DCode=26|XSize=0.55mm|YSize=0.6mm|CornerRadius=0.138mm|HoleSize=0mm|Usage=FLASHONLY|Rotation=270.000|XOffset=0mm|YOffset=0mm|HoleType=Round|Shape=RoundedRectangle|*
%AMROUNDEDRECTD26*
21,1,0.550,0.325,0,0,270.0*
21,1,0.275,0.600,0,0,270.0*
1,1,0.275,-0.163,-0.138*
1,1,0.275,-0.163,0.138*
1,1,0.275,0.163,0.138*
1,1,0.275,0.163,-0.138*
%
%ADD26ROUNDEDRECTD26*%
G04:AMPARAMS|DCode=28|XSize=0.55mm|YSize=0.6mm|CornerRadius=0.138mm|HoleSize=0mm|Usage=FLASHONLY|Rotation=180.000|XOffset=0mm|YOffset=0mm|HoleType=Round|Shape=RoundedRectangle|*
%AMROUNDEDRECTD28*
21,1,0.550,0.325,0,0,180.0*
21,1,0.275,0.600,0,0,180.0*
1,1,0.275,-0.138,0.163*
1,1,0.275,0.138,0.163*
1,1,0.275,0.138,-0.163*
1,1,0.275,-0.138,-0.163*
%
%ADD28ROUNDEDRECTD28*%
G04:AMPARAMS|DCode=34|XSize=0.9mm|YSize=0.8mm|CornerRadius=0.2mm|HoleSize=0mm|Usage=FLASHONLY|Rotation=180.000|XOffset=0mm|YOffset=0mm|HoleType=Round|Shape=RoundedRectangle|*
%AMROUNDEDRECTD34*
21,1,0.900,0.400,0,0,180.0*
21,1,0.500,0.800,0,0,180.0*
1,1,0.400,-0.250,0.200*
1,1,0.400,0.250,0.200*
1,1,0.400,0.250,-0.200*
1,1,0.400,-0.250,-0.200*
%
%ADD34ROUNDEDRECTD34*%
%ADD35R,0.650X1.050*%
%ADD37R,1.200X0.900*%
%ADD39R,1.150X0.550*%
%ADD40R,3.887X3.910*%
%ADD67C,0.700*%
%ADD73C,0.500*%
%ADD74C,1.676*%
%ADD75R,1.676X1.676*%
%ADD76C,2.600*%
%ADD77O,1.600X1.000*%
%ADD78C,1.700*%
G04:AMPARAMS|DCode=79|XSize=1.7mm|YSize=1.7mm|CornerRadius=0mm|HoleSize=0mm|Usage=FLASHONLY|Rotation=90.000|XOffset=0mm|YOffset=0mm|HoleType=Round|Shape=Octagon|*
%AMOCTAGOND79*
4,1,8,0.425,0.850,-0.425,0.850,-0.850,0.425,-0.850,-0.425,-0.425,-0.850,0.425,-0.850,0.850,-0.425,0.850,0.425,0.425,0.850,0.0*
%
%ADD79OCTAGOND79*%

%ADD80C,1.300*%
%ADD81R,1.300X1.300*%
G04:AMPARAMS|DCode=82|XSize=1.7mm|YSize=1.7mm|CornerRadius=0mm|HoleSize=0mm|Usage=FLASHONLY|Rotation=180.000|XOffset=0mm|YOffset=0mm|HoleType=Round|Shape=Octagon|*
%AMOCTAGOND82*
4,1,8,-0.850,0.425,-0.850,-0.425,-0.425,-0.850,0.425,-0.850,0.850,-0.425,0.850,0.425,0.425,0.850,-0.425,0.850,-0.850,0.425,0.0*
%
%ADD82OCTAGOND82*%

%ADD83C,0.800*%
%ADD84R,1.700X1.250*%
%ADD85R,1.700X0.500*%
%ADD86R,1.050X0.650*%
G04:AMPARAMS|DCode=87|XSize=1.75mm|YSize=1mm|CornerRadius=0.25mm|HoleSize=0mm|Usage=FLASHONLY|Rotation=0.000|XOffset=0mm|YOffset=0mm|HoleType=Round|Shape=RoundedRectangle|*
%AMROUNDEDRECTD87*
21,1,1.750,0.500,0,0,0.0*
21,1,1.250,1.000,0,0,0.0*
1,1,0.500,0.625,-0.250*
1,1,0.500,-0.625,-0.250*
1,1,0.500,-0.625,0.250*
1,1,0.500,0.625,0.250*
%
%ADD87ROUNDEDRECTD87*%
G36*
X29942Y33338D02*
X29942Y31062D01*
X30594Y31062D01*
X30594Y26259D01*
X30576Y26259D01*
X30400Y26224D01*
X30251Y26124D01*
X30076Y25949D01*
X29976Y25800D01*
X29941Y25624D01*
X29941Y23578D01*
X29840Y23510D01*
X29729Y23345D01*
X29702Y23209D01*
X29498Y23209D01*
X29471Y23345D01*
X29360Y23510D01*
X29259Y23578D01*
X29259Y25400D01*
X29224Y25576D01*
X29124Y25724D01*
X28724Y26124D01*
X28684Y26151D01*
X28706Y26259D01*
X28706Y28200D01*
X28683Y28317D01*
X28616Y28416D01*
X28517Y28483D01*
X28400Y28506D01*
X23600Y28506D01*
X23483Y28483D01*
X23384Y28416D01*
X23317Y28317D01*
X23294Y28200D01*
X23294Y23650D01*
X23317Y23533D01*
X23384Y23434D01*
X23483Y23367D01*
X23600Y23344D01*
X27971Y23344D01*
X28098Y23190D01*
X28090Y23150D01*
X28090Y22650D01*
X28129Y22455D01*
X28200Y22349D01*
X27876Y22024D01*
X27776Y21876D01*
X27746Y21725D01*
X27325Y21725D01*
X27325Y20575D01*
X29075Y20575D01*
X29075Y21725D01*
X29075Y21725D01*
X29016Y21867D01*
X29124Y21976D01*
X29224Y22124D01*
X29241Y22210D01*
X29360Y22290D01*
X29471Y22455D01*
X29498Y22591D01*
X29702Y22591D01*
X29729Y22455D01*
X29840Y22290D01*
X29959Y22210D01*
X29976Y22124D01*
X30076Y21976D01*
X30184Y21867D01*
X30125Y21725D01*
X30125Y21725D01*
X30125Y20575D01*
X31875Y20575D01*
X31875Y21725D01*
X31454Y21725D01*
X31424Y21876D01*
X31324Y22024D01*
X31000Y22349D01*
X31071Y22455D01*
X31110Y22650D01*
X31110Y23150D01*
X31101Y23194D01*
X31260Y23394D01*
X35800Y23394D01*
X35917Y23417D01*
X36016Y23484D01*
X36083Y23583D01*
X36106Y23700D01*
X36106Y24694D01*
X44400Y24694D01*
X44500Y24612D01*
X44500Y500D01*
X38151Y500D01*
X38093Y559D01*
X38019Y700D01*
X38050Y814D01*
X38050Y986D01*
X38006Y1151D01*
X37920Y1299D01*
X37799Y1420D01*
X37651Y1506D01*
X37486Y1550D01*
X37314Y1550D01*
X37183Y1515D01*
X37082Y1576D01*
X37007Y1655D01*
X37009Y1663D01*
X37009Y1937D01*
X36975Y2108D01*
X36878Y2253D01*
X36859Y2266D01*
X36859Y6700D01*
X36824Y6876D01*
X36724Y7024D01*
X35838Y7911D01*
X35959Y8031D01*
X36044Y8179D01*
X36088Y8344D01*
X36088Y8516D01*
X36044Y8681D01*
X35959Y8829D01*
X35838Y8950D01*
X35689Y9036D01*
X35524Y9080D01*
X35353Y9080D01*
X35188Y9036D01*
X35039Y8950D01*
X34918Y8829D01*
X34833Y8681D01*
X34809Y8591D01*
X34617Y8642D01*
X34367Y8642D01*
X34125Y8577D01*
X33909Y8452D01*
X33846Y8390D01*
X33646Y8472D01*
X33646Y9386D01*
X33219Y9386D01*
X33109Y9552D01*
X33103Y9586D01*
X33134Y9738D01*
X33134Y10062D01*
X33100Y10233D01*
X33003Y10378D01*
X32858Y10475D01*
X32688Y10509D01*
X32412Y10509D01*
X32242Y10475D01*
X32097Y10378D01*
X32000Y10233D01*
X31966Y10062D01*
X31966Y9738D01*
X31997Y9586D01*
X31991Y9552D01*
X31881Y9386D01*
X31746Y9386D01*
X31746Y8472D01*
X31546Y8390D01*
X31483Y8452D01*
X31267Y8577D01*
X31025Y8642D01*
X30775Y8642D01*
X30533Y8577D01*
X30317Y8452D01*
X30140Y8275D01*
X30046Y8113D01*
X29954Y8113D01*
X29778Y8078D01*
X29630Y7978D01*
X28076Y6424D01*
X27976Y6276D01*
X27941Y6100D01*
X27941Y1743D01*
X27976Y1567D01*
X28011Y1515D01*
X28025Y1442D01*
X28120Y1300D01*
X28025Y1158D01*
X27991Y988D01*
X27991Y712D01*
X27994Y700D01*
X27831Y500D01*
X500Y500D01*
X500Y19859D01*
X700Y19966D01*
X755Y19929D01*
X950Y19890D01*
X1450Y19890D01*
X1645Y19929D01*
X1810Y20040D01*
X1844Y20089D01*
X2056Y20089D01*
X2090Y20040D01*
X2255Y19929D01*
X2450Y19890D01*
X2950Y19890D01*
X3145Y19929D01*
X3310Y20040D01*
X3421Y20205D01*
X3460Y20400D01*
X3460Y20800D01*
X3421Y20995D01*
X3310Y21160D01*
X3145Y21271D01*
X2950Y21310D01*
X2450Y21310D01*
X2255Y21271D01*
X2090Y21160D01*
X2056Y21111D01*
X1844Y21111D01*
X1810Y21160D01*
X1659Y21262D01*
X1659Y21451D01*
X1659Y21451D01*
X1853Y21531D01*
X2021Y21659D01*
X2149Y21827D01*
X2229Y22021D01*
X2257Y22230D01*
X2229Y22439D01*
X2149Y22633D01*
X2021Y22801D01*
X1853Y22929D01*
X1659Y23009D01*
X1450Y23037D01*
X850Y23037D01*
X700Y23017D01*
X500Y23141D01*
X500Y29686D01*
X510Y29694D01*
X5945Y29694D01*
X5962Y29668D01*
X5931Y29420D01*
X5810Y29299D01*
X5724Y29151D01*
X5680Y28986D01*
X5680Y28814D01*
X5724Y28649D01*
X5810Y28501D01*
X5811Y28500D01*
X5810Y28499D01*
X5724Y28351D01*
X5680Y28186D01*
X5680Y28014D01*
X5724Y27849D01*
X5810Y27701D01*
X5811Y27700D01*
X5810Y27699D01*
X5724Y27551D01*
X5680Y27386D01*
X5680Y27214D01*
X5724Y27049D01*
X5810Y26901D01*
X5931Y26780D01*
X6079Y26694D01*
X6244Y26650D01*
X6361Y26650D01*
X6452Y26500D01*
X6361Y26350D01*
X6244Y26350D01*
X6079Y26306D01*
X5931Y26220D01*
X5711Y26259D01*
X5710Y26260D01*
X5545Y26371D01*
X5350Y26410D01*
X4850Y26410D01*
X4655Y26371D01*
X4490Y26260D01*
X4379Y26095D01*
X4340Y25900D01*
X4340Y25500D01*
X4379Y25305D01*
X4490Y25140D01*
X4655Y25029D01*
X4850Y24990D01*
X5350Y24990D01*
X5489Y25018D01*
X5497Y25017D01*
X5640Y24923D01*
X5680Y24879D01*
X5680Y24814D01*
X5724Y24649D01*
X5810Y24501D01*
X5811Y24500D01*
X5810Y24499D01*
X5724Y24351D01*
X5680Y24186D01*
X5680Y24014D01*
X5724Y23849D01*
X5810Y23701D01*
X5931Y23580D01*
X6079Y23494D01*
X6244Y23450D01*
X6416Y23450D01*
X6581Y23494D01*
X6729Y23580D01*
X6850Y23701D01*
X6936Y23849D01*
X6980Y24014D01*
X6980Y24186D01*
X6936Y24351D01*
X6864Y24475D01*
X6905Y24565D01*
X6916Y24582D01*
X6970Y24650D01*
X7116Y24650D01*
X7194Y24671D01*
X7371Y24562D01*
X7394Y24529D01*
X7394Y21306D01*
X6562Y21306D01*
X6522Y21506D01*
X6583Y21531D01*
X6751Y21659D01*
X6879Y21827D01*
X6959Y22021D01*
X6987Y22230D01*
X6959Y22439D01*
X6879Y22633D01*
X6751Y22801D01*
X6583Y22929D01*
X6389Y23009D01*
X6180Y23037D01*
X5580Y23037D01*
X5371Y23009D01*
X5177Y22929D01*
X5009Y22801D01*
X4881Y22633D01*
X4801Y22439D01*
X4773Y22230D01*
X4801Y22021D01*
X4881Y21827D01*
X5009Y21659D01*
X5177Y21531D01*
X5238Y21506D01*
X5198Y21306D01*
X4300Y21306D01*
X4183Y21283D01*
X4084Y21216D01*
X4017Y21117D01*
X3994Y21000D01*
X3994Y18800D01*
X4017Y18683D01*
X4084Y18584D01*
X4183Y18517D01*
X4300Y18494D01*
X9000Y18494D01*
X9117Y18517D01*
X9216Y18584D01*
X9283Y18683D01*
X9306Y18800D01*
X9306Y18900D01*
X9506Y19025D01*
X9531Y19014D01*
X9675Y18995D01*
X10275Y18995D01*
X10275Y17425D01*
X11525Y17425D01*
X11525Y19036D01*
X11626Y19114D01*
X11694Y19149D01*
X11798Y19070D01*
X11932Y19014D01*
X12075Y18995D01*
X13325Y18995D01*
X13469Y19014D01*
X13602Y19070D01*
X13717Y19158D01*
X13806Y19273D01*
X13861Y19407D01*
X13880Y19550D01*
X13880Y19943D01*
X14017Y20067D01*
X14078Y20075D01*
X15675Y20075D01*
X15675Y21325D01*
X15675Y21325D01*
X15675Y21325D01*
X15809Y21460D01*
X16140Y21791D01*
X16325Y21715D01*
X16325Y21025D01*
X17826Y21025D01*
X17974Y20926D01*
X18123Y20897D01*
X18141Y20884D01*
X18141Y20600D01*
X18176Y20424D01*
X18276Y20276D01*
X19376Y19176D01*
X19524Y19076D01*
X19700Y19041D01*
X23320Y19041D01*
X23786Y18576D01*
X23934Y18476D01*
X24110Y18441D01*
X24810Y18441D01*
X26805Y16446D01*
X26807Y16414D01*
X26739Y16230D01*
X26649Y16206D01*
X26501Y16120D01*
X26380Y15999D01*
X26294Y15851D01*
X26250Y15686D01*
X26250Y15514D01*
X26294Y15349D01*
X26380Y15201D01*
X26501Y15080D01*
X26649Y14994D01*
X26814Y14950D01*
X26986Y14950D01*
X27151Y14994D01*
X27241Y15046D01*
X27259Y15039D01*
X27379Y14898D01*
X27294Y14751D01*
X27250Y14586D01*
X27250Y14414D01*
X27294Y14249D01*
X27380Y14101D01*
X27501Y13980D01*
X27649Y13894D01*
X27814Y13850D01*
X27986Y13850D01*
X28151Y13894D01*
X28299Y13980D01*
X28420Y14101D01*
X28506Y14249D01*
X28550Y14414D01*
X28550Y14586D01*
X28506Y14751D01*
X28420Y14899D01*
X28359Y14960D01*
X28359Y16000D01*
X28324Y16176D01*
X28224Y16324D01*
X27695Y16854D01*
X27693Y16886D01*
X27761Y17070D01*
X27851Y17094D01*
X27999Y17180D01*
X28120Y17301D01*
X28206Y17449D01*
X28250Y17614D01*
X28250Y17786D01*
X28206Y17951D01*
X28120Y18099D01*
X27999Y18220D01*
X27851Y18306D01*
X27686Y18350D01*
X27540Y18350D01*
X27501Y18363D01*
X27367Y18497D01*
X27442Y18675D01*
X29075Y18675D01*
X29075Y19825D01*
X27325Y19825D01*
X27325Y19808D01*
X27125Y19738D01*
X27033Y19800D01*
X26862Y19834D01*
X26538Y19834D01*
X26367Y19800D01*
X26222Y19703D01*
X26125Y19558D01*
X26091Y19388D01*
X26091Y19112D01*
X26125Y18942D01*
X26140Y18920D01*
X26056Y18731D01*
X25868Y18680D01*
X25324Y19224D01*
X25176Y19324D01*
X25000Y19359D01*
X24300Y19359D01*
X23834Y19824D01*
X23686Y19924D01*
X23510Y19959D01*
X21961Y19959D01*
X21878Y20159D01*
X21920Y20201D01*
X22006Y20349D01*
X22050Y20514D01*
X22050Y20637D01*
X22170Y20769D01*
X22211Y20797D01*
X22226Y20800D01*
X22386Y20800D01*
X22551Y20844D01*
X22699Y20930D01*
X22820Y21051D01*
X22906Y21199D01*
X22950Y21364D01*
X22950Y21536D01*
X22906Y21701D01*
X22820Y21849D01*
X22699Y21970D01*
X22551Y22056D01*
X22386Y22100D01*
X22214Y22100D01*
X22049Y22056D01*
X21901Y21970D01*
X21780Y21849D01*
X21694Y21701D01*
X21650Y21536D01*
X21650Y21413D01*
X21600Y21358D01*
X21536Y21356D01*
X21350Y21536D01*
X21306Y21701D01*
X21220Y21849D01*
X21099Y21970D01*
X20951Y22056D01*
X20786Y22100D01*
X20614Y22100D01*
X20449Y22056D01*
X20301Y21970D01*
X20180Y21849D01*
X20094Y21701D01*
X20050Y21536D01*
X20050Y21490D01*
X20002Y21348D01*
X19860Y21300D01*
X19814Y21300D01*
X19649Y21256D01*
X19501Y21170D01*
X19380Y21049D01*
X19190Y21121D01*
X19209Y21212D01*
X19209Y21487D01*
X19175Y21658D01*
X19078Y21803D01*
X18933Y21900D01*
X18763Y21934D01*
X18438Y21934D01*
X18267Y21900D01*
X18256Y21893D01*
X18174Y21974D01*
X18026Y22074D01*
X17975Y22084D01*
X17975Y22275D01*
X16865Y22275D01*
X16819Y22323D01*
X16806Y22347D01*
X16745Y22529D01*
X16910Y22640D01*
X17021Y22805D01*
X17060Y23000D01*
X17060Y23400D01*
X17021Y23595D01*
X16910Y23760D01*
X16745Y23871D01*
X16609Y23898D01*
X16609Y24102D01*
X16745Y24129D01*
X16910Y24240D01*
X16975Y24336D01*
X17600Y24336D01*
X17600Y24050D01*
X19400Y24050D01*
X19400Y25284D01*
X19700Y25284D01*
X19817Y25308D01*
X19916Y25374D01*
X19983Y25473D01*
X20006Y25590D01*
X20006Y31222D01*
X20203Y31308D01*
X20221Y31289D01*
X20481Y31139D01*
X20770Y31062D01*
X21070Y31062D01*
X21359Y31139D01*
X21619Y31289D01*
X21831Y31501D01*
X21981Y31761D01*
X22058Y32050D01*
X22058Y32350D01*
X21981Y32639D01*
X21831Y32899D01*
X21619Y33111D01*
X21359Y33261D01*
X21212Y33300D01*
X21239Y33500D01*
X23141Y33500D01*
X23168Y33300D01*
X23021Y33261D01*
X22761Y33111D01*
X22549Y32899D01*
X22399Y32639D01*
X22322Y32350D01*
X22322Y32050D01*
X22399Y31761D01*
X22549Y31501D01*
X22761Y31289D01*
X23021Y31139D01*
X23310Y31062D01*
X23610Y31062D01*
X23899Y31139D01*
X24159Y31289D01*
X24371Y31501D01*
X24521Y31761D01*
X24598Y32050D01*
X24598Y32350D01*
X24521Y32639D01*
X24371Y32899D01*
X24159Y33111D01*
X23899Y33261D01*
X23752Y33300D01*
X23779Y33500D01*
X28221Y33500D01*
X28248Y33300D01*
X28101Y33261D01*
X27841Y33111D01*
X27629Y32899D01*
X27479Y32639D01*
X27402Y32350D01*
X27402Y32050D01*
X27479Y31761D01*
X27629Y31501D01*
X27841Y31289D01*
X28101Y31139D01*
X28390Y31062D01*
X28690Y31062D01*
X28979Y31139D01*
X29239Y31289D01*
X29451Y31501D01*
X29601Y31761D01*
X29678Y32050D01*
X29678Y32350D01*
X29601Y32639D01*
X29451Y32899D01*
X29239Y33111D01*
X28979Y33261D01*
X28832Y33300D01*
X28859Y33500D01*
X29850Y33500D01*
X29942Y33338D01*
X29942Y33338D02*
G37*
G36*
X19700Y25590D02*
X13906Y25590D01*
X13906Y30600D01*
X13883Y30717D01*
X13855Y30758D01*
X13855Y31206D01*
X13999Y31289D01*
X14010Y31300D01*
X15130Y31300D01*
X15141Y31289D01*
X15401Y31139D01*
X15690Y31062D01*
X15990Y31062D01*
X16279Y31139D01*
X16539Y31289D01*
X16550Y31300D01*
X17670Y31300D01*
X17681Y31289D01*
X17941Y31139D01*
X18230Y31062D01*
X18530Y31062D01*
X18819Y31139D01*
X19079Y31289D01*
X19090Y31300D01*
X19700Y31300D01*
X19700Y25590D01*
X19700Y25590D02*
G37*
G36*
X6850Y30000D02*
X510Y30000D01*
X510Y31600D01*
X6850Y31600D01*
X6850Y30000D01*
X6850Y30000D02*
G37*
G36*
X13008Y33300D02*
X12861Y33261D01*
X12601Y33111D01*
X12389Y32899D01*
X12239Y32639D01*
X12162Y32350D01*
X12162Y32050D01*
X12239Y31761D01*
X12389Y31501D01*
X12601Y31289D01*
X12861Y31139D01*
X12986Y31106D01*
X12959Y30906D01*
X7755Y30906D01*
X7638Y30883D01*
X7539Y30816D01*
X7473Y30717D01*
X7449Y30600D01*
X7449Y28439D01*
X7355Y28365D01*
X7249Y28314D01*
X7116Y28350D01*
X6970Y28350D01*
X6916Y28418D01*
X6905Y28435D01*
X6864Y28525D01*
X6936Y28649D01*
X6980Y28814D01*
X6980Y28986D01*
X6936Y29151D01*
X6850Y29299D01*
X6729Y29420D01*
X6698Y29668D01*
X6715Y29694D01*
X6850Y29694D01*
X6967Y29717D01*
X7067Y29784D01*
X7133Y29883D01*
X7156Y30000D01*
X7156Y31600D01*
X7133Y31717D01*
X7067Y31816D01*
X6967Y31883D01*
X6850Y31906D01*
X510Y31906D01*
X500Y31914D01*
X500Y33500D01*
X12981Y33500D01*
X13008Y33300D01*
X13008Y33300D02*
G37*
G36*
X44400Y25000D02*
X35800Y25000D01*
X35800Y23700D01*
X30900Y23700D01*
X30900Y25341D01*
X33026Y25341D01*
X33202Y25376D01*
X33351Y25476D01*
X33450Y25624D01*
X33485Y25800D01*
X33450Y25976D01*
X33351Y26124D01*
X33202Y26224D01*
X33026Y26259D01*
X30900Y26259D01*
X30900Y31062D01*
X32218Y31062D01*
X32218Y31500D01*
X44400Y31500D01*
X44400Y25000D01*
X44400Y25000D02*
G37*
G36*
X28400Y26259D02*
X26725Y26259D01*
X26549Y26224D01*
X26401Y26124D01*
X26301Y25976D01*
X26266Y25800D01*
X26301Y25624D01*
X26401Y25476D01*
X26549Y25376D01*
X26725Y25341D01*
X28210Y25341D01*
X28341Y25210D01*
X28341Y23650D01*
X23600Y23650D01*
X23600Y28200D01*
X28400Y28200D01*
X28400Y26259D01*
X28400Y26259D02*
G37*
G36*
X13600Y22100D02*
X9000Y22100D01*
X9000Y18800D01*
X4300Y18800D01*
X4300Y21000D01*
X7700Y21000D01*
X7700Y28000D01*
X7755Y28000D01*
X7755Y30600D01*
X13600Y30600D01*
X13600Y22100D01*
X13600Y22100D02*
G37*
G36*
X226338Y-128256D02*
X226423Y-128277D01*
X226528Y-128320D01*
X226634Y-128383D01*
X226719Y-128478D01*
X226782Y-128616D01*
X226793Y-128690D01*
X226804Y-128785D01*
X226804Y-128796D01*
X226804Y-128806D01*
X226793Y-128870D01*
X226772Y-128965D01*
X226740Y-129071D01*
X226666Y-129177D01*
X226571Y-129272D01*
X226507Y-129314D01*
X226433Y-129335D01*
X226349Y-129357D01*
X226253Y-129367D01*
X226211Y-129367D01*
X226169Y-129357D01*
X226116Y-129346D01*
X226042Y-129325D01*
X225978Y-129293D01*
X225904Y-129251D01*
X225841Y-129198D01*
X225830Y-129187D01*
X225820Y-129166D01*
X225788Y-129134D01*
X225756Y-129081D01*
X225724Y-129018D01*
X225703Y-128954D01*
X225682Y-128870D01*
X225671Y-128785D01*
X225671Y-128775D01*
X225671Y-128743D01*
X225682Y-128711D01*
X225693Y-128658D01*
X225714Y-128595D01*
X225745Y-128531D01*
X225788Y-128468D01*
X225841Y-128404D01*
X225851Y-128394D01*
X225872Y-128383D01*
X225904Y-128351D01*
X225957Y-128320D01*
X226021Y-128298D01*
X226084Y-128267D01*
X226169Y-128256D01*
X226253Y-128245D01*
X226275Y-128245D01*
X226338Y-128256D01*
X226338Y-128256D02*
G37*
G36*
X222624Y-127759D02*
X222730Y-127759D01*
X222846Y-127769D01*
X222984Y-127780D01*
X223121Y-127801D01*
X223280Y-127822D01*
X223449Y-127854D01*
X223788Y-127928D01*
X224148Y-128034D01*
X224497Y-128171D01*
X227671Y-133208D01*
X227671Y-133219D01*
X227671Y-133251D01*
X227661Y-133303D01*
X227661Y-133367D01*
X227650Y-133452D01*
X227629Y-133536D01*
X227587Y-133748D01*
X227587Y-133758D01*
X227576Y-133801D01*
X227565Y-133854D01*
X227544Y-133938D01*
X227513Y-134034D01*
X227491Y-134139D01*
X227417Y-134372D01*
X224666Y-130076D01*
X224656Y-130066D01*
X224624Y-130023D01*
X224581Y-129970D01*
X224529Y-129907D01*
X224454Y-129843D01*
X224370Y-129790D01*
X224275Y-129748D01*
X224169Y-129737D01*
X224126Y-129737D01*
X224084Y-129759D01*
X224021Y-129780D01*
X223957Y-129812D01*
X223883Y-129875D01*
X223798Y-129949D01*
X223714Y-130055D01*
X222793Y-131314D01*
X226031Y-136414D01*
X226010Y-136425D01*
X225957Y-136478D01*
X225872Y-136541D01*
X225756Y-136626D01*
X225608Y-136732D01*
X225428Y-136848D01*
X225216Y-136975D01*
X224984Y-137102D01*
X224719Y-137229D01*
X224433Y-137356D01*
X224126Y-137473D01*
X223798Y-137578D01*
X223449Y-137663D01*
X223079Y-137727D01*
X222687Y-137780D01*
X222285Y-137790D01*
X222190Y-137790D01*
X222137Y-137780D01*
X222074Y-137780D01*
X221915Y-137769D01*
X221724Y-137737D01*
X221502Y-137705D01*
X221248Y-137653D01*
X220984Y-137578D01*
X220687Y-137494D01*
X220381Y-137388D01*
X220063Y-137250D01*
X219746Y-137092D01*
X219418Y-136901D01*
X219090Y-136679D01*
X218772Y-136425D01*
X218465Y-136139D01*
X219841Y-134245D01*
X219851Y-134235D01*
X219862Y-134214D01*
X219873Y-134182D01*
X219883Y-134139D01*
X219894Y-134087D01*
X219915Y-134023D01*
X219926Y-133938D01*
X219926Y-133928D01*
X219926Y-133907D01*
X219915Y-133875D01*
X219904Y-133833D01*
X219894Y-133780D01*
X219862Y-133716D01*
X219830Y-133642D01*
X219777Y-133557D01*
X218762Y-131970D01*
X217248Y-134065D01*
X217248Y-134055D01*
X217238Y-134034D01*
X217227Y-134002D01*
X217217Y-133949D01*
X217206Y-133896D01*
X217195Y-133822D01*
X217164Y-133653D01*
X217121Y-133452D01*
X217100Y-133219D01*
X217079Y-132965D01*
X217068Y-132690D01*
X217068Y-132679D01*
X217068Y-132669D01*
X217068Y-132605D01*
X217079Y-132499D01*
X217090Y-132362D01*
X217111Y-132192D01*
X217143Y-131991D01*
X217195Y-131769D01*
X217248Y-131526D01*
X217322Y-131272D01*
X217418Y-130997D01*
X217545Y-130722D01*
X217682Y-130425D01*
X217852Y-130140D01*
X218042Y-129854D01*
X218264Y-129568D01*
X218518Y-129293D01*
X218539Y-129272D01*
X218592Y-129230D01*
X218677Y-129145D01*
X218793Y-129050D01*
X218952Y-128933D01*
X219132Y-128806D01*
X219344Y-128669D01*
X219587Y-128521D01*
X219862Y-128372D01*
X220158Y-128235D01*
X220476Y-128108D01*
X220825Y-127991D01*
X221195Y-127886D01*
X221587Y-127812D01*
X222000Y-127769D01*
X222433Y-127748D01*
X222550Y-127748D01*
X222624Y-127759D01*
X222624Y-127759D02*
G37*
G36*
X227894Y-139219D02*
X227978Y-139219D01*
X228052Y-139229D01*
X228105Y-139240D01*
X228116Y-139240D01*
X228147Y-139250D01*
X228190Y-139272D01*
X228243Y-139303D01*
X228296Y-139346D01*
X228349Y-139409D01*
X228391Y-139483D01*
X228423Y-139578D01*
X228423Y-139589D01*
X228423Y-139610D01*
X228433Y-139652D01*
X228433Y-139716D01*
X228433Y-139790D01*
X228444Y-139885D01*
X228444Y-140002D01*
X228444Y-140129D01*
X226560Y-140086D01*
X226539Y-140086D01*
X226497Y-140097D01*
X226423Y-140118D01*
X226349Y-140171D01*
X226264Y-140245D01*
X226232Y-140309D01*
X226190Y-140372D01*
X226169Y-140446D01*
X226148Y-140541D01*
X226126Y-140647D01*
X226126Y-140774D01*
X226126Y-141166D01*
X226126Y-141176D01*
X226126Y-141197D01*
X226126Y-141229D01*
X226137Y-141271D01*
X226148Y-141388D01*
X226179Y-141504D01*
X226232Y-141631D01*
X226306Y-141748D01*
X226349Y-141790D01*
X226412Y-141822D01*
X226476Y-141843D01*
X226550Y-141853D01*
X228475Y-141853D01*
X228475Y-141864D01*
X228475Y-141875D01*
X228475Y-141938D01*
X228475Y-142033D01*
X228465Y-142150D01*
X228454Y-142266D01*
X228433Y-142372D01*
X228401Y-142467D01*
X228370Y-142541D01*
X228359Y-142552D01*
X228338Y-142573D01*
X228306Y-142594D01*
X228243Y-142626D01*
X228158Y-142668D01*
X228052Y-142689D01*
X227904Y-142711D01*
X227735Y-142721D01*
X226370Y-142721D01*
X226327Y-142711D01*
X226211Y-142700D01*
X226073Y-142679D01*
X225925Y-142636D01*
X225777Y-142573D01*
X225650Y-142478D01*
X225544Y-142361D01*
X225534Y-142351D01*
X225523Y-142308D01*
X225491Y-142245D01*
X225470Y-142150D01*
X225439Y-142023D01*
X225407Y-141875D01*
X225396Y-141695D01*
X225386Y-141494D01*
X225386Y-140467D01*
X225386Y-140457D01*
X225386Y-140425D01*
X225386Y-140383D01*
X225396Y-140330D01*
X225396Y-140256D01*
X225407Y-140182D01*
X225439Y-140002D01*
X225491Y-139811D01*
X225555Y-139631D01*
X225661Y-139462D01*
X225724Y-139398D01*
X225798Y-139346D01*
X225809Y-139335D01*
X225841Y-139324D01*
X225883Y-139303D01*
X225957Y-139272D01*
X226042Y-139250D01*
X226158Y-139229D01*
X226285Y-139219D01*
X226433Y-139208D01*
X227809Y-139208D01*
X227894Y-139219D01*
X227894Y-139219D02*
G37*
G36*
X231904Y-142700D02*
X231174Y-142700D01*
X231174Y-141388D01*
X229618Y-141388D01*
X229618Y-142700D01*
X228931Y-142700D01*
X228931Y-139240D01*
X229618Y-139240D01*
X229618Y-140467D01*
X231174Y-140467D01*
X231174Y-139240D01*
X231904Y-139240D01*
X231904Y-142700D01*
X231904Y-142700D02*
G37*
G36*
X212212Y-138108D02*
X212275Y-138129D01*
X212349Y-138160D01*
X212434Y-138224D01*
X212508Y-138319D01*
X212540Y-138383D01*
X212561Y-138457D01*
X212592Y-138541D01*
X212603Y-138637D01*
X213069Y-142700D01*
X212201Y-142700D01*
X211958Y-139779D01*
X211947Y-139779D01*
X211048Y-142118D01*
X211037Y-142139D01*
X211016Y-142181D01*
X210984Y-142245D01*
X210931Y-142308D01*
X210857Y-142383D01*
X210772Y-142446D01*
X210667Y-142488D01*
X210540Y-142510D01*
X210518Y-142510D01*
X210476Y-142499D01*
X210413Y-142488D01*
X210328Y-142457D01*
X210233Y-142414D01*
X210148Y-142340D01*
X210063Y-142245D01*
X210000Y-142118D01*
X209111Y-139822D01*
X209101Y-139822D01*
X208847Y-142700D01*
X208000Y-142700D01*
X208444Y-138594D01*
X208444Y-138584D01*
X208444Y-138573D01*
X208466Y-138520D01*
X208487Y-138436D01*
X208529Y-138340D01*
X208582Y-138256D01*
X208667Y-138171D01*
X208772Y-138118D01*
X208836Y-138097D01*
X208931Y-138097D01*
X208984Y-138108D01*
X209058Y-138118D01*
X209153Y-138150D01*
X209259Y-138213D01*
X209365Y-138298D01*
X209460Y-138404D01*
X209503Y-138478D01*
X209534Y-138563D01*
X210518Y-141070D01*
X210540Y-141070D01*
X211524Y-138563D01*
X211524Y-138552D01*
X211534Y-138541D01*
X211555Y-138488D01*
X211608Y-138414D01*
X211672Y-138330D01*
X211757Y-138245D01*
X211862Y-138171D01*
X211989Y-138118D01*
X212063Y-138097D01*
X212169Y-138097D01*
X212212Y-138108D01*
X212212Y-138108D02*
G37*
G36*
X236031Y-139250D02*
X236137Y-139272D01*
X236274Y-139314D01*
X236412Y-139377D01*
X236539Y-139483D01*
X236602Y-139547D01*
X236655Y-139631D01*
X236697Y-139716D01*
X236729Y-139822D01*
X236729Y-139832D01*
X236740Y-139864D01*
X236750Y-139917D01*
X236761Y-139980D01*
X236772Y-140076D01*
X236782Y-140182D01*
X236793Y-140298D01*
X236793Y-140436D01*
X236793Y-140700D01*
X236793Y-140711D01*
X236793Y-140732D01*
X236793Y-140753D01*
X236793Y-140795D01*
X236782Y-140912D01*
X236772Y-141039D01*
X236740Y-141187D01*
X236708Y-141335D01*
X236655Y-141483D01*
X236581Y-141599D01*
X236570Y-141610D01*
X236549Y-141631D01*
X236518Y-141674D01*
X236465Y-141705D01*
X236401Y-141748D01*
X236316Y-141790D01*
X236221Y-141811D01*
X236115Y-141822D01*
X234401Y-141822D01*
X234401Y-142700D01*
X233682Y-142700D01*
X233682Y-139240D01*
X235988Y-139240D01*
X236031Y-139250D01*
X236031Y-139250D02*
G37*
G36*
X233216Y-142700D02*
X232412Y-142700D01*
X232412Y-139240D01*
X233216Y-139240D01*
X233216Y-142700D01*
X233216Y-142700D02*
G37*
G36*
X220677Y-139250D02*
X220719Y-139250D01*
X220836Y-139293D01*
X220888Y-139324D01*
X220963Y-139367D01*
X221026Y-139420D01*
X221079Y-139494D01*
X221142Y-139568D01*
X221195Y-139674D01*
X221238Y-139790D01*
X221269Y-139928D01*
X221291Y-140086D01*
X221301Y-140266D01*
X221301Y-140478D01*
X221301Y-140488D01*
X221301Y-140510D01*
X221301Y-140541D01*
X221291Y-140594D01*
X221280Y-140711D01*
X221248Y-140859D01*
X221206Y-141007D01*
X221132Y-141155D01*
X221037Y-141271D01*
X220984Y-141314D01*
X220910Y-141346D01*
X220910Y-141356D01*
X220931Y-141367D01*
X220973Y-141377D01*
X221037Y-141420D01*
X221111Y-141494D01*
X221174Y-141589D01*
X221238Y-141726D01*
X221269Y-141801D01*
X221280Y-141896D01*
X221301Y-142002D01*
X221301Y-142118D01*
X221301Y-142700D01*
X220571Y-142700D01*
X220571Y-142287D01*
X220571Y-142277D01*
X220571Y-142245D01*
X220571Y-142192D01*
X220571Y-142139D01*
X220560Y-142012D01*
X220550Y-141959D01*
X220539Y-141928D01*
X220539Y-141917D01*
X220529Y-141906D01*
X220486Y-141853D01*
X220402Y-141811D01*
X220349Y-141801D01*
X220285Y-141790D01*
X218994Y-141790D01*
X218994Y-142700D01*
X218264Y-142700D01*
X218264Y-139240D01*
X220645Y-139240D01*
X220677Y-139250D01*
X220677Y-139250D02*
G37*
G36*
X214307Y-142700D02*
X213492Y-142700D01*
X213492Y-139240D01*
X214307Y-139240D01*
X214307Y-142700D01*
X214307Y-142700D02*
G37*
G36*
X224148Y-139219D02*
X224275Y-139250D01*
X224412Y-139282D01*
X224550Y-139335D01*
X224666Y-139409D01*
X224761Y-139515D01*
X224772Y-139525D01*
X224793Y-139568D01*
X224835Y-139642D01*
X224878Y-139748D01*
X224909Y-139875D01*
X224952Y-140033D01*
X224973Y-140224D01*
X224984Y-140446D01*
X224984Y-141483D01*
X224984Y-141494D01*
X224984Y-141525D01*
X224984Y-141568D01*
X224973Y-141631D01*
X224973Y-141716D01*
X224962Y-141801D01*
X224920Y-141991D01*
X224857Y-142192D01*
X224772Y-142383D01*
X224708Y-142467D01*
X224645Y-142541D01*
X224560Y-142605D01*
X224476Y-142658D01*
X224465Y-142658D01*
X224444Y-142668D01*
X224391Y-142679D01*
X224338Y-142689D01*
X224253Y-142700D01*
X224169Y-142711D01*
X224063Y-142721D01*
X222730Y-142721D01*
X222687Y-142711D01*
X222571Y-142700D01*
X222444Y-142679D01*
X222306Y-142636D01*
X222158Y-142584D01*
X222031Y-142499D01*
X221925Y-142393D01*
X221915Y-142383D01*
X221894Y-142340D01*
X221862Y-142266D01*
X221830Y-142171D01*
X221798Y-142044D01*
X221767Y-141885D01*
X221746Y-141705D01*
X221735Y-141483D01*
X221735Y-140446D01*
X221735Y-140436D01*
X221735Y-140404D01*
X221735Y-140351D01*
X221746Y-140287D01*
X221756Y-140203D01*
X221767Y-140107D01*
X221809Y-139906D01*
X221883Y-139705D01*
X221936Y-139600D01*
X221989Y-139504D01*
X222063Y-139420D01*
X222137Y-139346D01*
X222232Y-139293D01*
X222338Y-139250D01*
X222349Y-139250D01*
X222370Y-139240D01*
X222412Y-139240D01*
X222465Y-139229D01*
X222529Y-139219D01*
X222603Y-139219D01*
X222783Y-139208D01*
X224042Y-139208D01*
X224148Y-139219D01*
X224148Y-139219D02*
G37*
G36*
X217079Y-139219D02*
X217248Y-139229D01*
X217407Y-139240D01*
X217471Y-139250D01*
X217534Y-139261D01*
X217576Y-139272D01*
X217608Y-139282D01*
X217619Y-139293D01*
X217640Y-139314D01*
X217672Y-139356D01*
X217703Y-139430D01*
X217735Y-139525D01*
X217756Y-139600D01*
X217767Y-139674D01*
X217777Y-139758D01*
X217788Y-139854D01*
X217799Y-139959D01*
X217799Y-140086D01*
X215905Y-140086D01*
X215862Y-140097D01*
X215820Y-140107D01*
X215714Y-140139D01*
X215661Y-140182D01*
X215619Y-140224D01*
X215619Y-140234D01*
X215598Y-140256D01*
X215587Y-140287D01*
X215566Y-140340D01*
X215545Y-140414D01*
X215524Y-140510D01*
X215513Y-140637D01*
X215502Y-140774D01*
X215502Y-141166D01*
X215502Y-141187D01*
X215502Y-141229D01*
X215502Y-141303D01*
X215513Y-141377D01*
X215513Y-141473D01*
X215524Y-141557D01*
X215534Y-141631D01*
X215555Y-141684D01*
X215555Y-141695D01*
X215576Y-141705D01*
X215598Y-141737D01*
X215640Y-141769D01*
X215682Y-141801D01*
X215746Y-141822D01*
X215820Y-141843D01*
X215915Y-141853D01*
X217852Y-141853D01*
X217852Y-141864D01*
X217852Y-141875D01*
X217852Y-141938D01*
X217852Y-142023D01*
X217841Y-142129D01*
X217830Y-142234D01*
X217809Y-142340D01*
X217777Y-142435D01*
X217746Y-142510D01*
X217735Y-142520D01*
X217714Y-142541D01*
X217672Y-142573D01*
X217619Y-142615D01*
X217523Y-142658D01*
X217418Y-142689D01*
X217270Y-142711D01*
X217100Y-142721D01*
X215703Y-142721D01*
X215598Y-142711D01*
X215481Y-142689D01*
X215344Y-142658D01*
X215206Y-142605D01*
X215079Y-142541D01*
X214973Y-142446D01*
X214963Y-142435D01*
X214942Y-142393D01*
X214899Y-142319D01*
X214857Y-142224D01*
X214815Y-142086D01*
X214772Y-141928D01*
X214751Y-141726D01*
X214741Y-141483D01*
X214741Y-140446D01*
X214741Y-140436D01*
X214741Y-140393D01*
X214741Y-140340D01*
X214751Y-140277D01*
X214762Y-140182D01*
X214783Y-140086D01*
X214836Y-139875D01*
X214920Y-139663D01*
X214973Y-139557D01*
X215047Y-139462D01*
X215132Y-139377D01*
X215227Y-139303D01*
X215333Y-139250D01*
X215460Y-139219D01*
X215513Y-139219D01*
X215555Y-139208D01*
X216910Y-139208D01*
X217079Y-139219D01*
X217079Y-139219D02*
G37*
%LPC*%
G36*
X24553Y22417D02*
X24382Y22417D01*
X24216Y22373D01*
X24068Y22287D01*
X23947Y22166D01*
X23861Y22018D01*
X23817Y21853D01*
X23817Y21682D01*
X23861Y21516D01*
X23947Y21368D01*
X24068Y21247D01*
X24216Y21161D01*
X24382Y21117D01*
X24553Y21117D01*
X24718Y21161D01*
X24816Y21218D01*
X25563Y21218D01*
X25601Y21180D01*
X25749Y21094D01*
X25914Y21050D01*
X26086Y21050D01*
X26251Y21094D01*
X26399Y21180D01*
X26520Y21301D01*
X26606Y21449D01*
X26650Y21614D01*
X26650Y21786D01*
X26606Y21951D01*
X26520Y22099D01*
X26399Y22220D01*
X26251Y22306D01*
X26086Y22350D01*
X25914Y22350D01*
X25749Y22306D01*
X25601Y22220D01*
X25516Y22135D01*
X25005Y22135D01*
X24987Y22166D01*
X24866Y22287D01*
X24718Y22373D01*
X24553Y22417D01*
X24553Y22417D02*
G37*
G36*
X34450Y20010D02*
X33950Y20010D01*
X33755Y19971D01*
X33590Y19860D01*
X33556Y19811D01*
X33344Y19811D01*
X33310Y19860D01*
X33145Y19971D01*
X32950Y20010D01*
X32450Y20010D01*
X32255Y19971D01*
X32090Y19860D01*
X32071Y19833D01*
X31875Y19825D01*
X31875Y19825D01*
X30125Y19825D01*
X30125Y18675D01*
X31875Y18675D01*
X31875Y18675D01*
X31902Y18670D01*
X32050Y18486D01*
X32050Y18314D01*
X32094Y18149D01*
X32180Y18001D01*
X32301Y17880D01*
X32449Y17794D01*
X32614Y17750D01*
X32786Y17750D01*
X32951Y17794D01*
X33099Y17880D01*
X33220Y18001D01*
X33306Y18149D01*
X33350Y18314D01*
X33350Y18486D01*
X33316Y18611D01*
X33384Y18714D01*
X33580Y18738D01*
X33592Y18738D01*
X33755Y18629D01*
X33950Y18590D01*
X34450Y18590D01*
X34645Y18629D01*
X34810Y18740D01*
X34921Y18905D01*
X34960Y19100D01*
X34960Y19500D01*
X34921Y19695D01*
X34810Y19860D01*
X34645Y19971D01*
X34450Y20010D01*
X34450Y20010D02*
G37*
G36*
X22286Y18150D02*
X22114Y18150D01*
X21949Y18106D01*
X21801Y18020D01*
X21680Y17899D01*
X21594Y17751D01*
X21550Y17586D01*
X21550Y17414D01*
X21594Y17249D01*
X21630Y17187D01*
X21590Y17160D01*
X21479Y16995D01*
X21440Y16800D01*
X21440Y16400D01*
X21479Y16205D01*
X21590Y16040D01*
X21755Y15929D01*
X21950Y15890D01*
X22450Y15890D01*
X22645Y15929D01*
X22810Y16040D01*
X22921Y16205D01*
X22960Y16400D01*
X22960Y16800D01*
X22921Y16995D01*
X22810Y17160D01*
X22770Y17187D01*
X22806Y17249D01*
X22850Y17414D01*
X22850Y17586D01*
X22806Y17751D01*
X22720Y17899D01*
X22599Y18020D01*
X22451Y18106D01*
X22286Y18150D01*
X22286Y18150D02*
G37*
G36*
X12475Y16775D02*
X11225Y16775D01*
X11225Y15125D01*
X11225Y15125D01*
X11225Y15125D01*
X11209Y15076D01*
X11194Y15051D01*
X11150Y14886D01*
X11150Y14714D01*
X11194Y14549D01*
X11280Y14401D01*
X11331Y14350D01*
X11280Y14299D01*
X11194Y14151D01*
X11150Y13986D01*
X11150Y13814D01*
X11194Y13649D01*
X11280Y13501D01*
X11331Y13450D01*
X11280Y13399D01*
X11194Y13251D01*
X11150Y13086D01*
X11150Y12914D01*
X11194Y12749D01*
X11280Y12601D01*
X11401Y12480D01*
X11549Y12394D01*
X11714Y12350D01*
X11886Y12350D01*
X12051Y12394D01*
X12199Y12480D01*
X12320Y12601D01*
X12406Y12749D01*
X12450Y12914D01*
X12450Y13086D01*
X12406Y13251D01*
X12320Y13399D01*
X12269Y13450D01*
X12320Y13501D01*
X12406Y13649D01*
X12450Y13814D01*
X12450Y13986D01*
X12406Y14151D01*
X12320Y14299D01*
X12269Y14350D01*
X12320Y14401D01*
X12406Y14549D01*
X12450Y14714D01*
X12450Y14886D01*
X12439Y14925D01*
X12475Y15125D01*
X12475Y15125D01*
X12475Y15491D01*
X13031Y15491D01*
X13167Y15400D01*
X13337Y15366D01*
X13663Y15366D01*
X13833Y15400D01*
X13969Y15491D01*
X13990Y15491D01*
X14101Y15380D01*
X14249Y15294D01*
X14414Y15250D01*
X14586Y15250D01*
X14751Y15294D01*
X14899Y15380D01*
X15020Y15501D01*
X15106Y15649D01*
X15150Y15814D01*
X15150Y15986D01*
X15106Y16151D01*
X15020Y16299D01*
X14899Y16420D01*
X14751Y16506D01*
X14586Y16550D01*
X14414Y16550D01*
X14249Y16506D01*
X14101Y16420D01*
X14090Y16409D01*
X13969Y16409D01*
X13833Y16500D01*
X13663Y16534D01*
X13337Y16534D01*
X13167Y16500D01*
X13031Y16409D01*
X12475Y16409D01*
X12475Y16775D01*
X12475Y16775D02*
G37*
G36*
X19586Y16350D02*
X19414Y16350D01*
X19249Y16306D01*
X19101Y16220D01*
X18980Y16099D01*
X18894Y15951D01*
X18850Y15786D01*
X18850Y15614D01*
X18894Y15449D01*
X18980Y15301D01*
X19101Y15180D01*
X19249Y15094D01*
X19414Y15050D01*
X19586Y15050D01*
X19751Y15094D01*
X19899Y15180D01*
X20020Y15301D01*
X20106Y15449D01*
X20150Y15614D01*
X20150Y15786D01*
X20106Y15951D01*
X20020Y16099D01*
X19899Y16220D01*
X19751Y16306D01*
X19586Y16350D01*
X19586Y16350D02*
G37*
G36*
X18086Y16250D02*
X17914Y16250D01*
X17749Y16206D01*
X17601Y16120D01*
X17480Y15999D01*
X17394Y15851D01*
X17350Y15686D01*
X17350Y15514D01*
X17394Y15349D01*
X17480Y15201D01*
X17601Y15080D01*
X17749Y14994D01*
X17914Y14950D01*
X18086Y14950D01*
X18251Y14994D01*
X18399Y15080D01*
X18520Y15201D01*
X18606Y15349D01*
X18650Y15514D01*
X18650Y15686D01*
X18606Y15851D01*
X18520Y15999D01*
X18399Y16120D01*
X18251Y16206D01*
X18086Y16250D01*
X18086Y16250D02*
G37*
G36*
X40551Y17090D02*
X40249Y17090D01*
X39956Y17012D01*
X39694Y16860D01*
X39480Y16646D01*
X39328Y16384D01*
X39250Y16091D01*
X39250Y15789D01*
X39328Y15496D01*
X39480Y15234D01*
X39694Y15020D01*
X39956Y14868D01*
X40249Y14790D01*
X40551Y14790D01*
X40844Y14868D01*
X41106Y15020D01*
X41320Y15234D01*
X41472Y15496D01*
X41550Y15789D01*
X41550Y16091D01*
X41472Y16384D01*
X41320Y16646D01*
X41106Y16860D01*
X40844Y17012D01*
X40551Y17090D01*
X40551Y17090D02*
G37*
G36*
X37086Y15750D02*
X36914Y15750D01*
X36749Y15706D01*
X36601Y15620D01*
X36480Y15499D01*
X36394Y15351D01*
X36350Y15186D01*
X36350Y15014D01*
X36394Y14849D01*
X36480Y14701D01*
X36601Y14580D01*
X36749Y14494D01*
X36914Y14450D01*
X37086Y14450D01*
X37251Y14494D01*
X37399Y14580D01*
X37520Y14701D01*
X37606Y14849D01*
X37650Y15014D01*
X37650Y15186D01*
X37606Y15351D01*
X37520Y15499D01*
X37399Y15620D01*
X37251Y15706D01*
X37086Y15750D01*
X37086Y15750D02*
G37*
G36*
X17846Y13800D02*
X17674Y13800D01*
X17509Y13756D01*
X17361Y13670D01*
X17240Y13549D01*
X17154Y13401D01*
X17110Y13236D01*
X17110Y13064D01*
X17154Y12899D01*
X17240Y12751D01*
X17361Y12630D01*
X17509Y12544D01*
X17674Y12500D01*
X17846Y12500D01*
X18011Y12544D01*
X18159Y12630D01*
X18280Y12751D01*
X18366Y12899D01*
X18410Y13064D01*
X18410Y13236D01*
X18366Y13401D01*
X18280Y13549D01*
X18159Y13670D01*
X18011Y13756D01*
X17846Y13800D01*
X17846Y13800D02*
G37*
G36*
X40551Y14550D02*
X40249Y14550D01*
X39956Y14472D01*
X39694Y14320D01*
X39480Y14106D01*
X39328Y13844D01*
X39250Y13551D01*
X39250Y13249D01*
X39328Y12956D01*
X39480Y12694D01*
X39694Y12480D01*
X39956Y12328D01*
X40249Y12250D01*
X40551Y12250D01*
X40844Y12328D01*
X41106Y12480D01*
X41320Y12694D01*
X41472Y12956D01*
X41550Y13249D01*
X41550Y13551D01*
X41472Y13844D01*
X41320Y14106D01*
X41106Y14320D01*
X40844Y14472D01*
X40551Y14550D01*
X40551Y14550D02*
G37*
G36*
X33786Y13350D02*
X33614Y13350D01*
X33449Y13306D01*
X33301Y13220D01*
X33180Y13099D01*
X33094Y12951D01*
X33050Y12786D01*
X33050Y12614D01*
X33094Y12449D01*
X33180Y12301D01*
X33301Y12180D01*
X33449Y12094D01*
X33614Y12050D01*
X33786Y12050D01*
X33951Y12094D01*
X34099Y12180D01*
X34220Y12301D01*
X34306Y12449D01*
X34350Y12614D01*
X34350Y12786D01*
X34306Y12951D01*
X34220Y13099D01*
X34099Y13220D01*
X33951Y13306D01*
X33786Y13350D01*
X33786Y13350D02*
G37*
G36*
X35186Y12150D02*
X35014Y12150D01*
X34849Y12106D01*
X34701Y12020D01*
X34580Y11899D01*
X34494Y11751D01*
X34450Y11586D01*
X34450Y11414D01*
X34494Y11249D01*
X34580Y11101D01*
X34701Y10980D01*
X34849Y10894D01*
X35014Y10850D01*
X35186Y10850D01*
X35351Y10894D01*
X35499Y10980D01*
X35620Y11101D01*
X35706Y11249D01*
X35750Y11414D01*
X35750Y11586D01*
X35706Y11751D01*
X35620Y11899D01*
X35499Y12020D01*
X35351Y12106D01*
X35186Y12150D01*
X35186Y12150D02*
G37*
G36*
X27086Y11579D02*
X26914Y11579D01*
X26749Y11535D01*
X26601Y11449D01*
X26480Y11328D01*
X26394Y11180D01*
X26350Y11015D01*
X26350Y10844D01*
X26394Y10678D01*
X26480Y10530D01*
X26601Y10409D01*
X26749Y10323D01*
X26914Y10279D01*
X27086Y10279D01*
X27251Y10323D01*
X27399Y10409D01*
X27520Y10530D01*
X27606Y10678D01*
X27650Y10844D01*
X27650Y11015D01*
X27606Y11180D01*
X27520Y11328D01*
X27399Y11449D01*
X27251Y11535D01*
X27086Y11579D01*
X27086Y11579D02*
G37*
G36*
X18102Y11577D02*
X17931Y11577D01*
X17766Y11533D01*
X17618Y11447D01*
X17497Y11326D01*
X17411Y11178D01*
X17367Y11012D01*
X17367Y10841D01*
X17411Y10676D01*
X17497Y10528D01*
X17618Y10407D01*
X17766Y10321D01*
X17931Y10277D01*
X18102Y10277D01*
X18268Y10321D01*
X18416Y10407D01*
X18537Y10528D01*
X18623Y10676D01*
X18667Y10841D01*
X18667Y11012D01*
X18623Y11178D01*
X18537Y11326D01*
X18416Y11447D01*
X18268Y11533D01*
X18102Y11577D01*
X18102Y11577D02*
G37*
G36*
X40551Y12010D02*
X40249Y12010D01*
X39956Y11932D01*
X39694Y11780D01*
X39480Y11566D01*
X39328Y11304D01*
X39250Y11011D01*
X39250Y10709D01*
X39328Y10416D01*
X39480Y10154D01*
X39694Y9940D01*
X39956Y9788D01*
X40249Y9710D01*
X40551Y9710D01*
X40844Y9788D01*
X41106Y9940D01*
X41320Y10154D01*
X41472Y10416D01*
X41550Y10709D01*
X41550Y11011D01*
X41472Y11304D01*
X41320Y11566D01*
X41106Y11780D01*
X40844Y11932D01*
X40551Y12010D01*
X40551Y12010D02*
G37*
G36*
X35186Y10550D02*
X35014Y10550D01*
X34849Y10506D01*
X34701Y10420D01*
X34580Y10299D01*
X34494Y10151D01*
X34450Y9986D01*
X34450Y9814D01*
X34494Y9649D01*
X34580Y9501D01*
X34701Y9380D01*
X34849Y9294D01*
X35014Y9250D01*
X35186Y9250D01*
X35351Y9294D01*
X35499Y9380D01*
X35620Y9501D01*
X35706Y9649D01*
X35750Y9814D01*
X35750Y9986D01*
X35706Y10151D01*
X35620Y10299D01*
X35499Y10420D01*
X35351Y10506D01*
X35186Y10550D01*
X35186Y10550D02*
G37*
G36*
X22286Y9450D02*
X22114Y9450D01*
X21949Y9406D01*
X21801Y9320D01*
X21680Y9199D01*
X21594Y9051D01*
X21550Y8886D01*
X21550Y8714D01*
X21594Y8549D01*
X21680Y8401D01*
X21801Y8280D01*
X21949Y8194D01*
X22114Y8150D01*
X22286Y8150D01*
X22451Y8194D01*
X22599Y8280D01*
X22720Y8401D01*
X22806Y8549D01*
X22850Y8714D01*
X22850Y8886D01*
X22806Y9051D01*
X22720Y9199D01*
X22599Y9320D01*
X22451Y9406D01*
X22286Y9450D01*
X22286Y9450D02*
G37*
G36*
X19586Y10250D02*
X19414Y10250D01*
X19249Y10206D01*
X19101Y10120D01*
X18980Y9999D01*
X18894Y9851D01*
X18850Y9686D01*
X18850Y9514D01*
X18894Y9349D01*
X18980Y9201D01*
X19101Y9080D01*
X19249Y8994D01*
X19414Y8950D01*
X19586Y8950D01*
X19602Y8954D01*
X19641Y8940D01*
X19790Y8798D01*
X19790Y8714D01*
X19834Y8549D01*
X19920Y8401D01*
X20041Y8280D01*
X20189Y8194D01*
X20355Y8150D01*
X20526Y8150D01*
X20691Y8194D01*
X20839Y8280D01*
X20960Y8401D01*
X21046Y8549D01*
X21090Y8714D01*
X21090Y8886D01*
X21046Y9051D01*
X20960Y9199D01*
X20839Y9320D01*
X20691Y9406D01*
X20526Y9450D01*
X20355Y9450D01*
X20339Y9446D01*
X20299Y9460D01*
X20150Y9602D01*
X20150Y9686D01*
X20106Y9851D01*
X20020Y9999D01*
X19899Y10120D01*
X19751Y10206D01*
X19586Y10250D01*
X19586Y10250D02*
G37*
G36*
X16236Y9390D02*
X16064Y9390D01*
X15899Y9346D01*
X15751Y9260D01*
X15630Y9139D01*
X15544Y8991D01*
X15500Y8826D01*
X15500Y8654D01*
X15544Y8489D01*
X15630Y8341D01*
X15751Y8220D01*
X15899Y8134D01*
X16064Y8090D01*
X16236Y8090D01*
X16401Y8134D01*
X16549Y8220D01*
X16670Y8341D01*
X16756Y8489D01*
X16800Y8654D01*
X16800Y8826D01*
X16756Y8991D01*
X16670Y9139D01*
X16549Y9260D01*
X16401Y9346D01*
X16236Y9390D01*
X16236Y9390D02*
G37*
G36*
X37086Y9050D02*
X36914Y9050D01*
X36749Y9006D01*
X36601Y8920D01*
X36480Y8799D01*
X36394Y8651D01*
X36350Y8486D01*
X36350Y8314D01*
X36394Y8149D01*
X36480Y8001D01*
X36601Y7880D01*
X36749Y7794D01*
X36914Y7750D01*
X37086Y7750D01*
X37251Y7794D01*
X37399Y7880D01*
X37520Y8001D01*
X37606Y8149D01*
X37650Y8314D01*
X37650Y8486D01*
X37606Y8651D01*
X37520Y8799D01*
X37399Y8920D01*
X37251Y9006D01*
X37086Y9050D01*
X37086Y9050D02*
G37*
G36*
X25542Y8068D02*
X25371Y8068D01*
X25206Y8023D01*
X25057Y7938D01*
X24936Y7817D01*
X24851Y7669D01*
X24807Y7503D01*
X24807Y7332D01*
X24851Y7167D01*
X24936Y7019D01*
X25057Y6898D01*
X25206Y6812D01*
X25371Y6768D01*
X25542Y6768D01*
X25707Y6812D01*
X25856Y6898D01*
X25977Y7019D01*
X26062Y7167D01*
X26107Y7332D01*
X26107Y7503D01*
X26062Y7669D01*
X25977Y7817D01*
X25856Y7938D01*
X25707Y8023D01*
X25542Y8068D01*
X25542Y8068D02*
G37*
G36*
X22186Y7350D02*
X22014Y7350D01*
X21849Y7306D01*
X21701Y7220D01*
X21580Y7099D01*
X21494Y6951D01*
X21450Y6786D01*
X21450Y6614D01*
X21494Y6449D01*
X21580Y6301D01*
X21701Y6180D01*
X21849Y6094D01*
X22014Y6050D01*
X22186Y6050D01*
X22351Y6094D01*
X22499Y6180D01*
X22620Y6301D01*
X22706Y6449D01*
X22750Y6614D01*
X22750Y6786D01*
X22706Y6951D01*
X22620Y7099D01*
X22499Y7220D01*
X22351Y7306D01*
X22186Y7350D01*
X22186Y7350D02*
G37*
G36*
X16186Y7250D02*
X16014Y7250D01*
X15849Y7206D01*
X15701Y7120D01*
X15580Y6999D01*
X15494Y6851D01*
X15450Y6686D01*
X15450Y6514D01*
X15494Y6349D01*
X15580Y6201D01*
X15701Y6080D01*
X15849Y5994D01*
X16014Y5950D01*
X16186Y5950D01*
X16351Y5994D01*
X16499Y6080D01*
X16620Y6201D01*
X16706Y6349D01*
X16750Y6514D01*
X16750Y6686D01*
X16706Y6851D01*
X16620Y6999D01*
X16499Y7120D01*
X16351Y7206D01*
X16186Y7250D01*
X16186Y7250D02*
G37*
G36*
X26386Y6450D02*
X26214Y6450D01*
X26049Y6406D01*
X25901Y6320D01*
X25780Y6199D01*
X25694Y6051D01*
X25650Y5886D01*
X25650Y5714D01*
X25694Y5549D01*
X25780Y5401D01*
X25901Y5280D01*
X26049Y5194D01*
X26214Y5150D01*
X26386Y5150D01*
X26551Y5194D01*
X26699Y5280D01*
X26820Y5401D01*
X26906Y5549D01*
X26950Y5714D01*
X26950Y5886D01*
X26906Y6051D01*
X26820Y6199D01*
X26699Y6320D01*
X26551Y6406D01*
X26386Y6450D01*
X26386Y6450D02*
G37*
G36*
X40551Y6930D02*
X40249Y6930D01*
X39956Y6852D01*
X39694Y6700D01*
X39480Y6486D01*
X39328Y6224D01*
X39250Y5931D01*
X39250Y5629D01*
X39328Y5336D01*
X39480Y5074D01*
X39694Y4860D01*
X39956Y4708D01*
X40249Y4630D01*
X40551Y4630D01*
X40844Y4708D01*
X41106Y4860D01*
X41320Y5074D01*
X41472Y5336D01*
X41550Y5629D01*
X41550Y5931D01*
X41472Y6224D01*
X41320Y6486D01*
X41106Y6700D01*
X40844Y6852D01*
X40551Y6930D01*
X40551Y6930D02*
G37*
G36*
X17486Y5650D02*
X17314Y5650D01*
X17149Y5606D01*
X17001Y5520D01*
X16880Y5399D01*
X16794Y5251D01*
X16750Y5086D01*
X16750Y4914D01*
X16794Y4749D01*
X16880Y4601D01*
X17001Y4480D01*
X17149Y4394D01*
X17314Y4350D01*
X17486Y4350D01*
X17651Y4394D01*
X17799Y4480D01*
X17920Y4601D01*
X18006Y4749D01*
X18050Y4914D01*
X18050Y5086D01*
X18006Y5251D01*
X17920Y5399D01*
X17799Y5520D01*
X17651Y5606D01*
X17486Y5650D01*
X17486Y5650D02*
G37*
G36*
X40975Y4390D02*
X39825Y4390D01*
X39250Y3815D01*
X39250Y2665D01*
X39825Y2090D01*
X40975Y2090D01*
X41550Y2665D01*
X41550Y3815D01*
X40975Y4390D01*
X40975Y4390D02*
G37*
G36*
X10845Y3250D02*
X9695Y3250D01*
X9120Y2675D01*
X9120Y1525D01*
X9695Y950D01*
X10845Y950D01*
X11420Y1525D01*
X11420Y2675D01*
X10845Y3250D01*
X10845Y3250D02*
G37*
G36*
X4945Y3250D02*
X3795Y3250D01*
X3220Y2675D01*
X3220Y1525D01*
X3795Y950D01*
X4945Y950D01*
X5520Y1525D01*
X5520Y2675D01*
X4945Y3250D01*
X4945Y3250D02*
G37*
G36*
X226338Y-128341D02*
X226232Y-128341D01*
X226179Y-128351D01*
X226095Y-128362D01*
X226010Y-128394D01*
X225915Y-128447D01*
X225830Y-128531D01*
X225777Y-128637D01*
X225767Y-128711D01*
X225756Y-128785D01*
X225756Y-128796D01*
X225756Y-128817D01*
X225767Y-128859D01*
X225777Y-128912D01*
X225820Y-129028D01*
X225851Y-129081D01*
X225894Y-129145D01*
X225904Y-129155D01*
X225925Y-129166D01*
X225957Y-129187D01*
X225999Y-129208D01*
X226105Y-129261D01*
X226179Y-129272D01*
X226253Y-129282D01*
X226275Y-129282D01*
X226327Y-129272D01*
X226402Y-129251D01*
X226486Y-129219D01*
X226571Y-129155D01*
X226645Y-129071D01*
X226698Y-128944D01*
X226719Y-128870D01*
X226719Y-128785D01*
X226719Y-128764D01*
X226708Y-128711D01*
X226698Y-128648D01*
X226666Y-128563D01*
X226603Y-128478D01*
X226518Y-128415D01*
X226412Y-128362D01*
X226338Y-128341D01*
X226338Y-128341D02*
G37*
%LPD*%
G36*
X226327Y-128478D02*
X226370Y-128489D01*
X226412Y-128521D01*
X226454Y-128552D01*
X226476Y-128605D01*
X226486Y-128669D01*
X226486Y-128679D01*
X226486Y-128700D01*
X226465Y-128764D01*
X226444Y-128796D01*
X226423Y-128827D01*
X226380Y-128849D01*
X226327Y-128859D01*
X226507Y-129145D01*
X226402Y-129145D01*
X226222Y-128859D01*
X226116Y-128859D01*
X226116Y-129145D01*
X226010Y-129145D01*
X226010Y-128468D01*
X226285Y-128468D01*
X226327Y-128478D01*
X226327Y-128478D02*
G37*
%LPC*%
G36*
X226285Y-128563D02*
X226116Y-128563D01*
X226116Y-128775D01*
X226296Y-128775D01*
X226338Y-128764D01*
X226370Y-128732D01*
X226380Y-128669D01*
X226380Y-128648D01*
X226370Y-128616D01*
X226338Y-128584D01*
X226285Y-128563D01*
X226285Y-128563D02*
G37*
G36*
X220603Y-129727D02*
X220560Y-129727D01*
X220508Y-129748D01*
X220444Y-129769D01*
X220370Y-129801D01*
X220296Y-129864D01*
X220201Y-129939D01*
X220116Y-130044D01*
X219227Y-131293D01*
X221925Y-135568D01*
X221936Y-135589D01*
X221968Y-135631D01*
X222010Y-135695D01*
X222074Y-135758D01*
X222148Y-135832D01*
X222222Y-135896D01*
X222296Y-135938D01*
X222380Y-135959D01*
X222423Y-135959D01*
X222476Y-135949D01*
X222539Y-135928D01*
X222613Y-135885D01*
X222687Y-135843D01*
X222772Y-135769D01*
X222846Y-135674D01*
X223788Y-134319D01*
X221079Y-130055D01*
X221068Y-130044D01*
X221047Y-130002D01*
X220994Y-129949D01*
X220941Y-129886D01*
X220867Y-129833D01*
X220793Y-129780D01*
X220698Y-129737D01*
X220603Y-129727D01*
X220603Y-129727D02*
G37*
G36*
X235756Y-140076D02*
X234401Y-140076D01*
X234401Y-140954D01*
X235819Y-140954D01*
X235840Y-140943D01*
X235883Y-140933D01*
X235925Y-140912D01*
X235957Y-140869D01*
X235999Y-140806D01*
X236020Y-140711D01*
X236031Y-140594D01*
X236031Y-140467D01*
X236031Y-140446D01*
X236031Y-140404D01*
X236020Y-140340D01*
X235999Y-140266D01*
X235967Y-140203D01*
X235914Y-140139D01*
X235851Y-140097D01*
X235756Y-140076D01*
X235756Y-140076D02*
G37*
G36*
X220254Y-140076D02*
X218994Y-140076D01*
X218994Y-140943D01*
X220338Y-140943D01*
X220370Y-140933D01*
X220423Y-140922D01*
X220476Y-140891D01*
X220518Y-140848D01*
X220571Y-140785D01*
X220603Y-140689D01*
X220613Y-140562D01*
X220613Y-140467D01*
X220613Y-140446D01*
X220613Y-140404D01*
X220592Y-140340D01*
X220571Y-140266D01*
X220529Y-140203D01*
X220465Y-140139D01*
X220370Y-140097D01*
X220254Y-140076D01*
X220254Y-140076D02*
G37*
G36*
X223788Y-140076D02*
X222899Y-140076D01*
X222857Y-140086D01*
X222804Y-140097D01*
X222751Y-140118D01*
X222698Y-140139D01*
X222645Y-140182D01*
X222592Y-140234D01*
X222592Y-140245D01*
X222571Y-140266D01*
X222560Y-140298D01*
X222539Y-140361D01*
X222518Y-140436D01*
X222507Y-140520D01*
X222486Y-140637D01*
X222486Y-140774D01*
X222486Y-141166D01*
X222486Y-141187D01*
X222486Y-141229D01*
X222486Y-141293D01*
X222497Y-141377D01*
X222518Y-141557D01*
X222539Y-141642D01*
X222560Y-141705D01*
X222560Y-141716D01*
X222582Y-141726D01*
X222603Y-141748D01*
X222634Y-141779D01*
X222677Y-141811D01*
X222730Y-141832D01*
X222804Y-141843D01*
X222888Y-141853D01*
X223830Y-141853D01*
X223883Y-141843D01*
X223957Y-141822D01*
X224042Y-141769D01*
X224116Y-141684D01*
X224158Y-141631D01*
X224190Y-141568D01*
X224222Y-141483D01*
X224243Y-141388D01*
X224264Y-141282D01*
X224264Y-141166D01*
X224264Y-140774D01*
X224264Y-140753D01*
X224264Y-140711D01*
X224253Y-140647D01*
X224243Y-140562D01*
X224201Y-140383D01*
X224169Y-140298D01*
X224116Y-140234D01*
X224105Y-140224D01*
X224095Y-140213D01*
X224063Y-140182D01*
X224021Y-140150D01*
X223915Y-140097D01*
X223862Y-140086D01*
X223788Y-140076D01*
X223788Y-140076D02*
G37*
%LPD*%
D10*
X43400Y32933D02*
X43233Y33100D01*
X42900Y33100D01*
X42734Y32933D01*
X42734Y32267D01*
X42900Y32100D01*
X43233Y32100D01*
X43400Y32267D01*
X43400Y32933D01*
X41900Y32100D02*
X41900Y33100D01*
X42400Y32600D01*
X41734Y32600D01*
X41401Y32600D02*
X40734Y32600D01*
X40401Y32100D02*
X40068Y32100D01*
X40234Y32100D01*
X40234Y33100D01*
X40401Y32933D01*
X38901Y32100D02*
X39568Y32100D01*
X38901Y32766D01*
X38901Y32933D01*
X39068Y33100D01*
X39401Y33100D01*
X39568Y32933D01*
X38568Y32933D02*
X38402Y33100D01*
X38068Y33100D01*
X37902Y32933D01*
X37902Y32766D01*
X38068Y32600D01*
X38235Y32600D01*
X38068Y32600D01*
X37902Y32433D01*
X37902Y32267D01*
X38068Y32100D01*
X38402Y32100D01*
X38568Y32267D01*
X36902Y32100D02*
X37569Y32100D01*
X36902Y32766D01*
X36902Y32933D01*
X37069Y33100D01*
X37402Y33100D01*
X37569Y32933D01*
X36569Y32100D02*
X36236Y32100D01*
X36402Y32100D01*
X36402Y33100D01*
X36569Y32933D01*
X35736Y32600D02*
X35069Y32600D01*
X34736Y32100D02*
X34736Y33100D01*
X34236Y33100D01*
X34070Y32933D01*
X34070Y32600D01*
X34236Y32433D01*
X34736Y32433D01*
X34403Y32433D02*
X34070Y32100D01*
X33736Y32100D02*
X33403Y32100D01*
X33570Y32100D01*
X33570Y33100D01*
X33736Y32933D01*
X305428Y-127450D02*
X304500Y-127450D01*
X304500Y-128950D01*
X305428Y-128950D01*
X304500Y-128164D02*
X305071Y-128164D01*
X305678Y-127450D02*
X306250Y-128950D01*
X306821Y-127450D02*
X306250Y-128950D01*
X308014Y-127450D02*
X307299Y-128950D01*
X307014Y-127450D02*
X308014Y-127450D01*
X308349Y-127736D02*
X308492Y-127665D01*
X308706Y-127450D01*
X308706Y-128950D01*
X309449Y-127450D02*
X310020Y-128950D01*
X310592Y-127450D02*
X310020Y-128950D01*
X310927Y-127450D02*
X311713Y-127450D01*
X311284Y-128022D01*
X311499Y-128022D01*
X311641Y-128093D01*
X311713Y-128164D01*
X311784Y-128379D01*
X311784Y-128521D01*
X311713Y-128736D01*
X311570Y-128879D01*
X311356Y-128950D01*
X311141Y-128950D01*
X310927Y-128879D01*
X310856Y-128807D01*
X310784Y-128664D01*
X312977Y-127665D02*
X312905Y-127522D01*
X312691Y-127450D01*
X312548Y-127450D01*
X312334Y-127522D01*
X312191Y-127736D01*
X312120Y-128093D01*
X312120Y-128450D01*
X312191Y-128736D01*
X312334Y-128879D01*
X312548Y-128950D01*
X312620Y-128950D01*
X312834Y-128879D01*
X312977Y-128736D01*
X313048Y-128521D01*
X313048Y-128450D01*
X312977Y-128236D01*
X312834Y-128093D01*
X312620Y-128022D01*
X312548Y-128022D01*
X312334Y-128093D01*
X312191Y-128236D01*
X312120Y-128450D01*
X314519Y-128950D02*
X313948Y-127450D01*
X313377Y-128950D01*
X313591Y-128450D02*
X314305Y-128450D01*
D12*
X10900Y19800D02*
X12700Y19800D01*
X10900Y18250D02*
X10900Y19800D01*
X10900Y19800D02*
X10900Y19800D01*
X10300Y19800D02*
X10900Y19800D01*
X23510Y19500D02*
X24110Y18900D01*
X19700Y19500D02*
X23510Y19500D01*
X25000Y18900D02*
X27900Y16000D01*
X27900Y14500D02*
X27900Y16000D01*
X24110Y18900D02*
X25000Y18900D01*
X35427Y5193D02*
X35427Y5613D01*
X35427Y5193D02*
X35500Y5120D01*
X35028Y3128D02*
X35500Y3600D01*
X35500Y5120D01*
X35140Y5900D02*
X35427Y5613D01*
X29804Y5644D02*
X30060Y5900D01*
X29804Y1831D02*
X29804Y5644D01*
X14500Y22900D02*
X14500Y24725D01*
X14850Y20700D02*
X14850Y21150D01*
X16300Y22600D01*
X16300Y23200D01*
X2700Y20600D02*
X2700Y20600D01*
X1200Y20600D02*
X2700Y20600D01*
X1150Y22230D02*
X1200Y22180D01*
X1200Y20600D02*
X1200Y22180D01*
X24575Y21767D02*
X24666Y21677D01*
X25977Y21677D01*
X24467Y21767D02*
X24575Y21767D01*
X25977Y21677D02*
X26000Y21700D01*
X18600Y20600D02*
X18600Y21350D01*
X18600Y20600D02*
X19700Y19500D01*
X18150Y21350D02*
X18600Y21350D01*
X14450Y15950D02*
X14500Y15900D01*
X11850Y15950D02*
X14450Y15950D01*
X28600Y850D02*
X36400Y850D01*
X32550Y8490D02*
X32550Y9900D01*
X32550Y8490D02*
X32600Y8440D01*
X26700Y18500D02*
X26700Y19250D01*
X37328Y828D02*
X37400Y900D01*
X36422Y828D02*
X37328Y828D01*
X36400Y850D02*
X36422Y828D01*
X35400Y7700D02*
X36400Y6700D01*
X36400Y1750D02*
X36400Y6700D01*
X34396Y7696D02*
X34400Y7700D01*
X30762Y7654D02*
X30804Y7696D01*
X34400Y7700D02*
X35400Y7700D01*
X29954Y7654D02*
X30762Y7654D01*
X33743Y1800D02*
X33743Y2543D01*
X30804Y2896D02*
X30804Y4104D01*
X30804Y2896D02*
X31171Y2529D01*
X32457Y1750D02*
X32457Y3217D01*
X34396Y3196D02*
X34396Y4104D01*
X32457Y3217D02*
X32600Y3360D01*
X33743Y2543D02*
X34396Y3196D01*
X31171Y1750D02*
X31171Y2529D01*
X35028Y1800D02*
X35028Y3128D01*
X29804Y1831D02*
X29885Y1750D01*
X28400Y1743D02*
X28400Y6100D01*
X29954Y7654D01*
X31000Y21150D02*
X31000Y21700D01*
X30400Y22300D02*
X30400Y25624D01*
X30400Y22300D02*
X31000Y21700D01*
X28200Y21150D02*
X28200Y21700D01*
X28800Y22300D02*
X28800Y22900D01*
X28200Y21700D02*
X28800Y22300D01*
X28800Y22900D02*
X28800Y25400D01*
X30400Y25624D02*
X30576Y25800D01*
X33026Y25800D01*
X26725Y25800D02*
X28400Y25800D01*
X28800Y25400D01*
X32700Y18400D02*
X32700Y19300D01*
X34200Y19300D01*
X32650Y19250D02*
X32700Y19300D01*
X31000Y19250D02*
X32650Y19250D01*
X17150Y21650D02*
X17850Y21650D01*
X18150Y21350D01*
X16300Y24795D02*
X18495Y24795D01*
X14570Y24795D02*
X16300Y24795D01*
X26700Y19250D02*
X27550Y19250D01*
X27550Y19250D02*
X28200Y19250D01*
X14500Y24725D02*
X14570Y24795D01*
X18495Y24795D02*
X18500Y24800D01*
X11850Y15950D02*
X11850Y15950D01*
X22200Y16600D02*
X22200Y17500D01*
X5100Y25700D02*
X6330Y25700D01*
X6330Y25700D01*
X5300Y23400D02*
X6694Y23400D01*
X5100Y23600D02*
X5300Y23400D01*
X5100Y23600D02*
X5100Y24100D01*
X6994Y23700D02*
X7030Y23700D01*
X6694Y23400D02*
X6994Y23700D01*
X5100Y25700D02*
X5100Y25700D01*
D13*
X267500Y-149950D02*
X267500Y-151450D01*
X267500Y-149950D02*
X268143Y-149950D01*
X268357Y-150022D01*
X268428Y-150093D01*
X268500Y-150236D01*
X268500Y-150379D01*
X268428Y-150522D01*
X268357Y-150593D01*
X268143Y-150664D01*
X267500Y-150664D02*
X268143Y-150664D01*
X268357Y-150736D01*
X268428Y-150807D01*
X268500Y-150950D01*
X268500Y-151164D01*
X268428Y-151307D01*
X268357Y-151379D01*
X268143Y-151450D01*
X267500Y-151450D01*
X269193Y-150450D02*
X269050Y-150522D01*
X268907Y-150664D01*
X268835Y-150879D01*
X268835Y-151021D01*
X268907Y-151236D01*
X269050Y-151379D01*
X269193Y-151450D01*
X269407Y-151450D01*
X269550Y-151379D01*
X269692Y-151236D01*
X269764Y-151021D01*
X269764Y-150879D01*
X269692Y-150664D01*
X269550Y-150522D01*
X269407Y-150450D01*
X269193Y-150450D01*
X270307Y-149950D02*
X270307Y-151164D01*
X270378Y-151379D01*
X270521Y-151450D01*
X270664Y-151450D01*
X270092Y-150450D02*
X270592Y-150450D01*
X271092Y-149950D02*
X271092Y-151164D01*
X271164Y-151379D01*
X271306Y-151450D01*
X271449Y-151450D01*
X270878Y-150450D02*
X271378Y-150450D01*
X272020Y-150450D02*
X271878Y-150522D01*
X271735Y-150664D01*
X271663Y-150879D01*
X271663Y-151021D01*
X271735Y-151236D01*
X271878Y-151379D01*
X272020Y-151450D01*
X272235Y-151450D01*
X272378Y-151379D01*
X272520Y-151236D01*
X272592Y-151021D01*
X272592Y-150879D01*
X272520Y-150664D01*
X272378Y-150522D01*
X272235Y-150450D01*
X272020Y-150450D01*
X272920Y-150450D02*
X272920Y-151450D01*
X272920Y-150736D02*
X273135Y-150522D01*
X273277Y-150450D01*
X273492Y-150450D01*
X273634Y-150522D01*
X273706Y-150736D01*
X273706Y-151450D01*
X273706Y-150736D02*
X273920Y-150522D01*
X274063Y-150450D01*
X274277Y-150450D01*
X274420Y-150522D01*
X274491Y-150736D01*
X274491Y-151450D01*
X276141Y-149950D02*
X276141Y-151450D01*
X276998Y-151450D01*
X278019Y-150450D02*
X278019Y-151450D01*
X278019Y-150664D02*
X277876Y-150522D01*
X277734Y-150450D01*
X277519Y-150450D01*
X277376Y-150522D01*
X277234Y-150664D01*
X277162Y-150879D01*
X277162Y-151021D01*
X277234Y-151236D01*
X277376Y-151379D01*
X277519Y-151450D01*
X277734Y-151450D01*
X277876Y-151379D01*
X278019Y-151236D01*
X278491Y-150450D02*
X278919Y-151450D01*
X279347Y-150450D02*
X278919Y-151450D01*
X278776Y-151736D01*
X278633Y-151878D01*
X278491Y-151950D01*
X278419Y-151950D01*
X279597Y-150879D02*
X280454Y-150879D01*
X280454Y-150736D01*
X280383Y-150593D01*
X280312Y-150522D01*
X280169Y-150450D01*
X279954Y-150450D01*
X279812Y-150522D01*
X279669Y-150664D01*
X279597Y-150879D01*
X279597Y-151021D01*
X279669Y-151236D01*
X279812Y-151379D01*
X279954Y-151450D01*
X280169Y-151450D01*
X280312Y-151379D01*
X280454Y-151236D01*
X280776Y-150450D02*
X280776Y-151450D01*
X280776Y-150879D02*
X280847Y-150664D01*
X280990Y-150522D01*
X281133Y-150450D01*
X281347Y-150450D01*
X292000Y-128152D02*
X292493Y-128152D01*
X292657Y-128098D01*
X292712Y-128043D01*
X292767Y-127933D01*
X292767Y-127769D01*
X292712Y-127660D01*
X292657Y-127605D01*
X292493Y-127550D01*
X292000Y-127550D01*
X292000Y-128700D01*
X293900Y-128700D02*
X293462Y-127550D01*
X293024Y-128700D01*
X293188Y-128317D02*
X293736Y-128317D01*
X294168Y-127550D02*
X294168Y-128700D01*
X294168Y-127550D02*
X294661Y-127550D01*
X294825Y-127605D01*
X294880Y-127660D01*
X294935Y-127769D01*
X294935Y-127879D01*
X294880Y-127988D01*
X294825Y-128043D01*
X294661Y-128098D01*
X294168Y-128098D01*
X294551Y-128098D02*
X294935Y-128700D01*
X295575Y-127550D02*
X295575Y-128700D01*
X295192Y-127550D02*
X295958Y-127550D01*
X296999Y-127550D02*
X296999Y-128700D01*
X296999Y-127550D02*
X297765Y-128700D01*
X297765Y-127550D02*
X297765Y-128700D01*
X298083Y-127550D02*
X298083Y-128371D01*
X298138Y-128536D01*
X298247Y-128645D01*
X298411Y-128700D01*
X298521Y-128700D01*
X298685Y-128645D01*
X298795Y-128536D01*
X298849Y-128371D01*
X298849Y-127550D01*
X299167Y-127550D02*
X299167Y-128700D01*
X299167Y-127550D02*
X299605Y-128700D01*
X300043Y-127550D02*
X299605Y-128700D01*
X300043Y-127550D02*
X300043Y-128700D01*
X300371Y-127550D02*
X300371Y-128700D01*
X300371Y-127550D02*
X300864Y-127550D01*
X301028Y-127605D01*
X301083Y-127660D01*
X301138Y-127769D01*
X301138Y-127879D01*
X301083Y-127988D01*
X301028Y-128043D01*
X300864Y-128098D01*
X300371Y-128098D02*
X300864Y-128098D01*
X301028Y-128152D01*
X301083Y-128207D01*
X301138Y-128317D01*
X301138Y-128481D01*
X301083Y-128590D01*
X301028Y-128645D01*
X300864Y-128700D01*
X300371Y-128700D01*
X302107Y-127550D02*
X301395Y-127550D01*
X301395Y-128700D01*
X302107Y-128700D01*
X301395Y-128098D02*
X301833Y-128098D01*
X302299Y-127550D02*
X302299Y-128700D01*
X302299Y-127550D02*
X302791Y-127550D01*
X302956Y-127605D01*
X303010Y-127660D01*
X303065Y-127769D01*
X303065Y-127879D01*
X303010Y-127988D01*
X302956Y-128043D01*
X302791Y-128098D01*
X302299Y-128098D01*
X302682Y-128098D02*
X303065Y-128700D01*
X303377Y-127933D02*
X303322Y-127988D01*
X303377Y-128043D01*
X303432Y-127988D01*
X303377Y-127933D01*
X303377Y-128590D02*
X303322Y-128645D01*
X303377Y-128700D01*
X303432Y-128645D01*
X303377Y-128590D01*
X240383Y-128050D02*
X240383Y-129200D01*
X240000Y-128050D02*
X240767Y-128050D01*
X240903Y-128050D02*
X240903Y-129200D01*
X241528Y-128050D02*
X241528Y-129200D01*
X241144Y-128050D02*
X241911Y-128050D01*
X242048Y-128050D02*
X242048Y-129200D01*
X242705Y-129200D01*
X243542Y-128050D02*
X242831Y-128050D01*
X242831Y-129200D01*
X243542Y-129200D01*
X242831Y-128598D02*
X243269Y-128598D01*
X243789Y-128433D02*
X243734Y-128488D01*
X243789Y-128543D01*
X243843Y-128488D01*
X243789Y-128433D01*
X243789Y-129090D02*
X243734Y-129145D01*
X243789Y-129200D01*
X243843Y-129145D01*
X243789Y-129090D01*
X306700Y-142550D02*
X306700Y-143700D01*
X306700Y-142550D02*
X307083Y-142550D01*
X307248Y-142605D01*
X307357Y-142714D01*
X307412Y-142824D01*
X307467Y-142988D01*
X307467Y-143262D01*
X307412Y-143426D01*
X307357Y-143536D01*
X307248Y-143645D01*
X307083Y-143700D01*
X306700Y-143700D01*
X308600Y-143700D02*
X308162Y-142550D01*
X307724Y-143700D01*
X307888Y-143317D02*
X308436Y-143317D01*
X309251Y-142550D02*
X309251Y-143700D01*
X308868Y-142550D02*
X309635Y-142550D01*
X310483Y-142550D02*
X309772Y-142550D01*
X309772Y-143700D01*
X310483Y-143700D01*
X309772Y-143098D02*
X310210Y-143098D01*
X310730Y-142933D02*
X310675Y-142988D01*
X310730Y-143043D01*
X310784Y-142988D01*
X310730Y-142933D01*
X310730Y-143590D02*
X310675Y-143645D01*
X310730Y-143700D01*
X310784Y-143645D01*
X310730Y-143590D01*
X306700Y-145486D02*
X306843Y-145415D01*
X307057Y-145200D01*
X307057Y-146700D01*
X307800Y-146914D02*
X308800Y-145200D01*
X308971Y-145557D02*
X308971Y-145486D01*
X309042Y-145343D01*
X309114Y-145272D01*
X309257Y-145200D01*
X309542Y-145200D01*
X309685Y-145272D01*
X309757Y-145343D01*
X309828Y-145486D01*
X309828Y-145629D01*
X309757Y-145772D01*
X309614Y-145986D01*
X308900Y-146700D01*
X309899Y-146700D01*
X311163Y-145700D02*
X311092Y-145914D01*
X310949Y-146057D01*
X310735Y-146129D01*
X310663Y-146129D01*
X310449Y-146057D01*
X310306Y-145914D01*
X310235Y-145700D01*
X310235Y-145629D01*
X310306Y-145415D01*
X310449Y-145272D01*
X310663Y-145200D01*
X310735Y-145200D01*
X310949Y-145272D01*
X311092Y-145415D01*
X311163Y-145700D01*
X311163Y-146057D01*
X311092Y-146414D01*
X310949Y-146629D01*
X310735Y-146700D01*
X310592Y-146700D01*
X310378Y-146629D01*
X310306Y-146486D01*
X311570Y-146914D02*
X312570Y-145200D01*
X312742Y-145557D02*
X312742Y-145486D01*
X312813Y-145343D01*
X312884Y-145272D01*
X313027Y-145200D01*
X313313Y-145200D01*
X313456Y-145272D01*
X313527Y-145343D01*
X313599Y-145486D01*
X313599Y-145629D01*
X313527Y-145772D01*
X313384Y-145986D01*
X312670Y-146700D01*
X313670Y-146700D01*
X314434Y-145200D02*
X314220Y-145272D01*
X314077Y-145486D01*
X314006Y-145843D01*
X314006Y-146057D01*
X314077Y-146414D01*
X314220Y-146629D01*
X314434Y-146700D01*
X314577Y-146700D01*
X314791Y-146629D01*
X314934Y-146414D01*
X315005Y-146057D01*
X315005Y-145843D01*
X314934Y-145486D01*
X314791Y-145272D01*
X314577Y-145200D01*
X314434Y-145200D01*
X315412Y-145557D02*
X315412Y-145486D01*
X315484Y-145343D01*
X315555Y-145272D01*
X315698Y-145200D01*
X315984Y-145200D01*
X316127Y-145272D01*
X316198Y-145343D01*
X316269Y-145486D01*
X316269Y-145629D01*
X316198Y-145772D01*
X316055Y-145986D01*
X315341Y-146700D01*
X316341Y-146700D01*
X317533Y-145200D02*
X316819Y-145200D01*
X316748Y-145843D01*
X316819Y-145772D01*
X317034Y-145700D01*
X317248Y-145700D01*
X317462Y-145772D01*
X317605Y-145914D01*
X317676Y-146129D01*
X317676Y-146271D01*
X317605Y-146486D01*
X317462Y-146629D01*
X317248Y-146700D01*
X317034Y-146700D01*
X316819Y-146629D01*
X316748Y-146557D01*
X316676Y-146414D01*
X298750Y-148300D02*
X298750Y-149450D01*
X298750Y-148300D02*
X299243Y-148300D01*
X299407Y-148355D01*
X299462Y-148410D01*
X299517Y-148519D01*
X299517Y-148629D01*
X299462Y-148738D01*
X299407Y-148793D01*
X299243Y-148848D01*
X298750Y-148848D01*
X299133Y-148848D02*
X299517Y-149450D01*
X300486Y-148300D02*
X299774Y-148300D01*
X299774Y-149450D01*
X300486Y-149450D01*
X299774Y-148848D02*
X300212Y-148848D01*
X300677Y-148300D02*
X301115Y-149450D01*
X301553Y-148300D02*
X301115Y-149450D01*
X301756Y-148683D02*
X301701Y-148738D01*
X301756Y-148793D01*
X301811Y-148738D01*
X301756Y-148683D01*
X301756Y-149340D02*
X301701Y-149395D01*
X301756Y-149450D01*
X301811Y-149395D01*
X301756Y-149340D01*
X268000Y-137152D02*
X268493Y-137152D01*
X268657Y-137098D01*
X268712Y-137043D01*
X268767Y-136933D01*
X268767Y-136769D01*
X268712Y-136660D01*
X268657Y-136605D01*
X268493Y-136550D01*
X268000Y-136550D01*
X268000Y-137700D01*
X269024Y-136550D02*
X269024Y-137700D01*
X269681Y-137700D01*
X270135Y-136550D02*
X270026Y-136605D01*
X269916Y-136714D01*
X269862Y-136824D01*
X269807Y-136988D01*
X269807Y-137262D01*
X269862Y-137426D01*
X269916Y-137536D01*
X270026Y-137645D01*
X270135Y-137700D01*
X270354Y-137700D01*
X270464Y-137645D01*
X270573Y-137536D01*
X270628Y-137426D01*
X270683Y-137262D01*
X270683Y-136988D01*
X270628Y-136824D01*
X270573Y-136714D01*
X270464Y-136605D01*
X270354Y-136550D01*
X270135Y-136550D01*
X271334Y-136550D02*
X271334Y-137700D01*
X270951Y-136550D02*
X271718Y-136550D01*
X272758Y-136550D02*
X272758Y-137700D01*
X272758Y-136550D02*
X273524Y-137700D01*
X273524Y-136550D02*
X273524Y-137700D01*
X274718Y-137700D02*
X274280Y-136550D01*
X273842Y-137700D01*
X274006Y-137317D02*
X274554Y-137317D01*
X274986Y-136550D02*
X274986Y-137700D01*
X274986Y-136550D02*
X275424Y-137700D01*
X275862Y-136550D02*
X275424Y-137700D01*
X275862Y-136550D02*
X275862Y-137700D01*
X276902Y-136550D02*
X276191Y-136550D01*
X276191Y-137700D01*
X276902Y-137700D01*
X276191Y-137098D02*
X276629Y-137098D01*
X277997Y-137864D02*
X278764Y-136550D01*
X280565Y-136824D02*
X280510Y-136714D01*
X280401Y-136605D01*
X280291Y-136550D01*
X280072Y-136550D01*
X279963Y-136605D01*
X279853Y-136714D01*
X279799Y-136824D01*
X279744Y-136988D01*
X279744Y-137262D01*
X279799Y-137426D01*
X279853Y-137536D01*
X279963Y-137645D01*
X280072Y-137700D01*
X280291Y-137700D01*
X280401Y-137645D01*
X280510Y-137536D01*
X280565Y-137426D01*
X280565Y-137262D01*
X280291Y-137262D02*
X280565Y-137262D01*
X281540Y-136550D02*
X280828Y-136550D01*
X280828Y-137700D01*
X281540Y-137700D01*
X280828Y-137098D02*
X281266Y-137098D01*
X281731Y-136550D02*
X281731Y-137700D01*
X281731Y-136550D02*
X282224Y-136550D01*
X282388Y-136605D01*
X282443Y-136660D01*
X282498Y-136769D01*
X282498Y-136879D01*
X282443Y-136988D01*
X282388Y-137043D01*
X282224Y-137098D01*
X281731Y-137098D01*
X282115Y-137098D02*
X282498Y-137700D01*
X282755Y-136550D02*
X282755Y-137700D01*
X282755Y-136550D02*
X283248Y-136550D01*
X283412Y-136605D01*
X283467Y-136660D01*
X283522Y-136769D01*
X283522Y-136879D01*
X283467Y-136988D01*
X283412Y-137043D01*
X283248Y-137098D01*
X282755Y-137098D02*
X283248Y-137098D01*
X283412Y-137152D01*
X283467Y-137207D01*
X283522Y-137317D01*
X283522Y-137481D01*
X283467Y-137590D01*
X283412Y-137645D01*
X283248Y-137700D01*
X282755Y-137700D01*
X284491Y-136550D02*
X283779Y-136550D01*
X283779Y-137700D01*
X284491Y-137700D01*
X283779Y-137098D02*
X284217Y-137098D01*
X284682Y-136550D02*
X284682Y-137700D01*
X284682Y-136550D02*
X285175Y-136550D01*
X285339Y-136605D01*
X285394Y-136660D01*
X285449Y-136769D01*
X285449Y-136879D01*
X285394Y-136988D01*
X285339Y-137043D01*
X285175Y-137098D01*
X284682Y-137098D01*
X285066Y-137098D02*
X285449Y-137700D01*
X286610Y-136550D02*
X286610Y-137700D01*
X286610Y-136550D02*
X287321Y-136550D01*
X286610Y-137098D02*
X287048Y-137098D01*
X287453Y-136550D02*
X287453Y-137700D01*
X287694Y-136550D02*
X287694Y-137700D01*
X288351Y-137700D01*
X289188Y-136550D02*
X288477Y-136550D01*
X288477Y-137700D01*
X289188Y-137700D01*
X288477Y-137098D02*
X288915Y-137098D01*
X289435Y-136933D02*
X289380Y-136988D01*
X289435Y-137043D01*
X289489Y-136988D01*
X289435Y-136933D01*
X289435Y-137590D02*
X289380Y-137645D01*
X289435Y-137700D01*
X289489Y-137645D01*
X289435Y-137590D01*
X268000Y-143152D02*
X268493Y-143152D01*
X268657Y-143098D01*
X268712Y-143043D01*
X268767Y-142933D01*
X268767Y-142769D01*
X268712Y-142660D01*
X268657Y-142605D01*
X268493Y-142550D01*
X268000Y-142550D01*
X268000Y-143700D01*
X269845Y-142824D02*
X269790Y-142714D01*
X269681Y-142605D01*
X269571Y-142550D01*
X269352Y-142550D01*
X269243Y-142605D01*
X269133Y-142714D01*
X269079Y-142824D01*
X269024Y-142988D01*
X269024Y-143262D01*
X269079Y-143426D01*
X269133Y-143536D01*
X269243Y-143645D01*
X269352Y-143700D01*
X269571Y-143700D01*
X269681Y-143645D01*
X269790Y-143536D01*
X269845Y-143426D01*
X270168Y-142550D02*
X270168Y-143700D01*
X270168Y-142550D02*
X270661Y-142550D01*
X270825Y-142605D01*
X270880Y-142660D01*
X270935Y-142769D01*
X270935Y-142879D01*
X270880Y-142988D01*
X270825Y-143043D01*
X270661Y-143098D01*
X270168Y-143098D02*
X270661Y-143098D01*
X270825Y-143152D01*
X270880Y-143207D01*
X270935Y-143317D01*
X270935Y-143481D01*
X270880Y-143590D01*
X270825Y-143645D01*
X270661Y-143700D01*
X270168Y-143700D01*
X272095Y-142550D02*
X272095Y-143700D01*
X272095Y-142550D02*
X272862Y-143700D01*
X272862Y-142550D02*
X272862Y-143700D01*
X273179Y-142550D02*
X273179Y-143371D01*
X273234Y-143536D01*
X273344Y-143645D01*
X273508Y-143700D01*
X273617Y-143700D01*
X273782Y-143645D01*
X273891Y-143536D01*
X273946Y-143371D01*
X273946Y-142550D01*
X274263Y-142550D02*
X274263Y-143700D01*
X274263Y-142550D02*
X274701Y-143700D01*
X275139Y-142550D02*
X274701Y-143700D01*
X275139Y-142550D02*
X275139Y-143700D01*
X275468Y-142550D02*
X275468Y-143700D01*
X275468Y-142550D02*
X275961Y-142550D01*
X276125Y-142605D01*
X276180Y-142660D01*
X276234Y-142769D01*
X276234Y-142879D01*
X276180Y-142988D01*
X276125Y-143043D01*
X275961Y-143098D01*
X275468Y-143098D02*
X275961Y-143098D01*
X276125Y-143152D01*
X276180Y-143207D01*
X276234Y-143317D01*
X276234Y-143481D01*
X276180Y-143590D01*
X276125Y-143645D01*
X275961Y-143700D01*
X275468Y-143700D01*
X277204Y-142550D02*
X276492Y-142550D01*
X276492Y-143700D01*
X277204Y-143700D01*
X276492Y-143098D02*
X276930Y-143098D01*
X277395Y-142550D02*
X277395Y-143700D01*
X277395Y-142550D02*
X277888Y-142550D01*
X278052Y-142605D01*
X278107Y-142660D01*
X278162Y-142769D01*
X278162Y-142879D01*
X278107Y-142988D01*
X278052Y-143043D01*
X277888Y-143098D01*
X277395Y-143098D01*
X277778Y-143098D02*
X278162Y-143700D01*
X278474Y-142933D02*
X278419Y-142988D01*
X278474Y-143043D01*
X278529Y-142988D01*
X278474Y-142933D01*
X278474Y-143590D02*
X278419Y-143645D01*
X278474Y-143700D01*
X278529Y-143645D01*
X278474Y-143590D01*
X240000Y-143152D02*
X240493Y-143152D01*
X240657Y-143098D01*
X240712Y-143043D01*
X240767Y-142933D01*
X240767Y-142769D01*
X240712Y-142660D01*
X240657Y-142605D01*
X240493Y-142550D01*
X240000Y-142550D01*
X240000Y-143700D01*
X241024Y-142933D02*
X241024Y-143700D01*
X241024Y-143262D02*
X241079Y-143098D01*
X241188Y-142988D01*
X241298Y-142933D01*
X241462Y-142933D01*
X241840Y-142933D02*
X241730Y-142988D01*
X241621Y-143098D01*
X241566Y-143262D01*
X241566Y-143371D01*
X241621Y-143536D01*
X241730Y-143645D01*
X241840Y-143700D01*
X242004Y-143700D01*
X242113Y-143645D01*
X242223Y-143536D01*
X242278Y-143371D01*
X242278Y-143262D01*
X242223Y-143098D01*
X242113Y-142988D01*
X242004Y-142933D01*
X241840Y-142933D01*
X242748Y-142550D02*
X242803Y-142605D01*
X242858Y-142550D01*
X242803Y-142495D01*
X242748Y-142550D01*
X242803Y-142933D02*
X242803Y-143864D01*
X242748Y-144028D01*
X242639Y-144083D01*
X242529Y-144083D01*
X243072Y-143262D02*
X243729Y-143262D01*
X243729Y-143152D01*
X243674Y-143043D01*
X243619Y-142988D01*
X243510Y-142933D01*
X243345Y-142933D01*
X243236Y-142988D01*
X243126Y-143098D01*
X243072Y-143262D01*
X243072Y-143371D01*
X243126Y-143536D01*
X243236Y-143645D01*
X243345Y-143700D01*
X243510Y-143700D01*
X243619Y-143645D01*
X243729Y-143536D01*
X244632Y-143098D02*
X244522Y-142988D01*
X244413Y-142933D01*
X244249Y-142933D01*
X244139Y-142988D01*
X244030Y-143098D01*
X243975Y-143262D01*
X243975Y-143371D01*
X244030Y-143536D01*
X244139Y-143645D01*
X244249Y-143700D01*
X244413Y-143700D01*
X244522Y-143645D01*
X244632Y-143536D01*
X245043Y-142550D02*
X245043Y-143481D01*
X245097Y-143645D01*
X245207Y-143700D01*
X245316Y-143700D01*
X244878Y-142933D02*
X245262Y-142933D01*
X246712Y-142550D02*
X246603Y-142605D01*
X246493Y-142714D01*
X246439Y-142824D01*
X246384Y-142988D01*
X246384Y-143262D01*
X246439Y-143426D01*
X246493Y-143536D01*
X246603Y-143645D01*
X246712Y-143700D01*
X246931Y-143700D01*
X247041Y-143645D01*
X247150Y-143536D01*
X247205Y-143426D01*
X247260Y-143262D01*
X247260Y-142988D01*
X247205Y-142824D01*
X247150Y-142714D01*
X247041Y-142605D01*
X246931Y-142550D01*
X246712Y-142550D01*
X247528Y-142933D02*
X247747Y-143700D01*
X247966Y-142933D02*
X247747Y-143700D01*
X247966Y-142933D02*
X248185Y-143700D01*
X248404Y-142933D02*
X248185Y-143700D01*
X248672Y-142933D02*
X248672Y-143700D01*
X248672Y-143152D02*
X248837Y-142988D01*
X248946Y-142933D01*
X249110Y-142933D01*
X249220Y-142988D01*
X249275Y-143152D01*
X249275Y-143700D01*
X249576Y-143262D02*
X250233Y-143262D01*
X250233Y-143152D01*
X250178Y-143043D01*
X250123Y-142988D01*
X250014Y-142933D01*
X249850Y-142933D01*
X249740Y-142988D01*
X249631Y-143098D01*
X249576Y-143262D01*
X249576Y-143371D01*
X249631Y-143536D01*
X249740Y-143645D01*
X249850Y-143700D01*
X250014Y-143700D01*
X250123Y-143645D01*
X250233Y-143536D01*
X250479Y-142933D02*
X250479Y-143700D01*
X250479Y-143262D02*
X250534Y-143098D01*
X250643Y-142988D01*
X250753Y-142933D01*
X250917Y-142933D01*
X251076Y-142933D02*
X251021Y-142988D01*
X251076Y-143043D01*
X251131Y-142988D01*
X251076Y-142933D01*
X251076Y-143590D02*
X251021Y-143645D01*
X251076Y-143700D01*
X251131Y-143645D01*
X251076Y-143590D01*
X240000Y-137152D02*
X240493Y-137152D01*
X240657Y-137098D01*
X240712Y-137043D01*
X240767Y-136933D01*
X240767Y-136769D01*
X240712Y-136660D01*
X240657Y-136605D01*
X240493Y-136550D01*
X240000Y-136550D01*
X240000Y-137700D01*
X241845Y-136824D02*
X241790Y-136714D01*
X241681Y-136605D01*
X241571Y-136550D01*
X241352Y-136550D01*
X241243Y-136605D01*
X241133Y-136714D01*
X241079Y-136824D01*
X241024Y-136988D01*
X241024Y-137262D01*
X241079Y-137426D01*
X241133Y-137536D01*
X241243Y-137645D01*
X241352Y-137700D01*
X241571Y-137700D01*
X241681Y-137645D01*
X241790Y-137536D01*
X241845Y-137426D01*
X242168Y-136550D02*
X242168Y-137700D01*
X242168Y-136550D02*
X242661Y-136550D01*
X242825Y-136605D01*
X242880Y-136660D01*
X242935Y-136769D01*
X242935Y-136879D01*
X242880Y-136988D01*
X242825Y-137043D01*
X242661Y-137098D01*
X242168Y-137098D02*
X242661Y-137098D01*
X242825Y-137152D01*
X242880Y-137207D01*
X242935Y-137317D01*
X242935Y-137481D01*
X242880Y-137590D01*
X242825Y-137645D01*
X242661Y-137700D01*
X242168Y-137700D01*
X244095Y-136550D02*
X244095Y-137700D01*
X244752Y-137700D01*
X245535Y-136933D02*
X245535Y-137700D01*
X245535Y-137098D02*
X245426Y-136988D01*
X245316Y-136933D01*
X245152Y-136933D01*
X245043Y-136988D01*
X244933Y-137098D01*
X244878Y-137262D01*
X244878Y-137371D01*
X244933Y-137536D01*
X245043Y-137645D01*
X245152Y-137700D01*
X245316Y-137700D01*
X245426Y-137645D01*
X245535Y-137536D01*
X245897Y-136933D02*
X246225Y-137700D01*
X246554Y-136933D02*
X246225Y-137700D01*
X246116Y-137919D01*
X246006Y-138028D01*
X245897Y-138083D01*
X245842Y-138083D01*
X247019Y-136933D02*
X246910Y-136988D01*
X246800Y-137098D01*
X246745Y-137262D01*
X246745Y-137371D01*
X246800Y-137536D01*
X246910Y-137645D01*
X247019Y-137700D01*
X247183Y-137700D01*
X247293Y-137645D01*
X247402Y-137536D01*
X247457Y-137371D01*
X247457Y-137262D01*
X247402Y-137098D01*
X247293Y-136988D01*
X247183Y-136933D01*
X247019Y-136933D01*
X247709Y-136933D02*
X247709Y-137481D01*
X247764Y-137645D01*
X247873Y-137700D01*
X248037Y-137700D01*
X248147Y-137645D01*
X248311Y-137481D01*
X248311Y-136933D02*
X248311Y-137700D01*
X248776Y-136550D02*
X248776Y-137481D01*
X248831Y-137645D01*
X248941Y-137700D01*
X249050Y-137700D01*
X248612Y-136933D02*
X248995Y-136933D01*
X250939Y-136824D02*
X250884Y-136714D01*
X250775Y-136605D01*
X250665Y-136550D01*
X250446Y-136550D01*
X250337Y-136605D01*
X250227Y-136714D01*
X250173Y-136824D01*
X250118Y-136988D01*
X250118Y-137262D01*
X250173Y-137426D01*
X250227Y-137536D01*
X250337Y-137645D01*
X250446Y-137700D01*
X250665Y-137700D01*
X250775Y-137645D01*
X250884Y-137536D01*
X250939Y-137426D01*
X251536Y-136933D02*
X251426Y-136988D01*
X251317Y-137098D01*
X251262Y-137262D01*
X251262Y-137371D01*
X251317Y-137536D01*
X251426Y-137645D01*
X251536Y-137700D01*
X251700Y-137700D01*
X251810Y-137645D01*
X251919Y-137536D01*
X251974Y-137371D01*
X251974Y-137262D01*
X251919Y-137098D01*
X251810Y-136988D01*
X251700Y-136933D01*
X251536Y-136933D01*
X252226Y-136933D02*
X252226Y-137700D01*
X252226Y-137152D02*
X252390Y-136988D01*
X252499Y-136933D01*
X252664Y-136933D01*
X252773Y-136988D01*
X252828Y-137152D01*
X252828Y-137700D01*
X253293Y-136550D02*
X253293Y-137481D01*
X253348Y-137645D01*
X253458Y-137700D01*
X253567Y-137700D01*
X253129Y-136933D02*
X253512Y-136933D01*
X254388Y-136933D02*
X254388Y-137700D01*
X254388Y-137098D02*
X254279Y-136988D01*
X254169Y-136933D01*
X254005Y-136933D01*
X253896Y-136988D01*
X253786Y-137098D01*
X253731Y-137262D01*
X253731Y-137371D01*
X253786Y-137536D01*
X253896Y-137645D01*
X254005Y-137700D01*
X254169Y-137700D01*
X254279Y-137645D01*
X254388Y-137536D01*
X255352Y-137098D02*
X255242Y-136988D01*
X255133Y-136933D01*
X254969Y-136933D01*
X254859Y-136988D01*
X254750Y-137098D01*
X254695Y-137262D01*
X254695Y-137371D01*
X254750Y-137536D01*
X254859Y-137645D01*
X254969Y-137700D01*
X255133Y-137700D01*
X255242Y-137645D01*
X255352Y-137536D01*
X255763Y-136550D02*
X255763Y-137481D01*
X255817Y-137645D01*
X255927Y-137700D01*
X256036Y-137700D01*
X255598Y-136933D02*
X255982Y-136933D01*
X256255Y-136933D02*
X256201Y-136988D01*
X256255Y-137043D01*
X256310Y-136988D01*
X256255Y-136933D01*
X256255Y-137590D02*
X256201Y-137645D01*
X256255Y-137700D01*
X256310Y-137645D01*
X256255Y-137590D01*
X240286Y-150450D02*
X240143Y-150498D01*
X240048Y-150641D01*
X240000Y-150879D01*
X240000Y-151021D01*
X240048Y-151260D01*
X240143Y-151402D01*
X240286Y-151450D01*
X240381Y-151450D01*
X240524Y-151402D01*
X240619Y-151260D01*
X240667Y-151021D01*
X240667Y-150879D01*
X240619Y-150641D01*
X240524Y-150498D01*
X240381Y-150450D01*
X240286Y-150450D01*
X241366Y-150450D02*
X240890Y-151117D01*
X241604Y-151117D01*
X241366Y-150450D02*
X241366Y-151450D01*
X241781Y-151021D02*
X242638Y-151021D01*
X242933Y-150641D02*
X243028Y-150593D01*
X243171Y-150450D01*
X243171Y-151450D01*
X243714Y-150688D02*
X243714Y-150641D01*
X243761Y-150545D01*
X243809Y-150498D01*
X243904Y-150450D01*
X244094Y-150450D01*
X244190Y-150498D01*
X244237Y-150545D01*
X244285Y-150641D01*
X244285Y-150736D01*
X244237Y-150831D01*
X244142Y-150974D01*
X243666Y-151450D01*
X244332Y-151450D01*
X244651Y-150450D02*
X245175Y-150450D01*
X244889Y-150831D01*
X245032Y-150831D01*
X245128Y-150879D01*
X245175Y-150926D01*
X245223Y-151069D01*
X245223Y-151164D01*
X245175Y-151307D01*
X245080Y-151402D01*
X244937Y-151450D01*
X244794Y-151450D01*
X244651Y-151402D01*
X244604Y-151355D01*
X244556Y-151260D01*
X245494Y-150688D02*
X245494Y-150641D01*
X245542Y-150545D01*
X245589Y-150498D01*
X245685Y-150450D01*
X245875Y-150450D01*
X245970Y-150498D01*
X246018Y-150545D01*
X246065Y-150641D01*
X246065Y-150736D01*
X246018Y-150831D01*
X245923Y-150974D01*
X245446Y-151450D01*
X246113Y-151450D01*
X246337Y-150641D02*
X246432Y-150593D01*
X246575Y-150450D01*
X246575Y-151450D01*
X247118Y-151355D02*
X247070Y-151402D01*
X247118Y-151450D01*
X247165Y-151402D01*
X247118Y-151355D01*
X247384Y-150974D02*
X247813Y-150974D01*
X247955Y-150926D01*
X248003Y-150879D01*
X248051Y-150783D01*
X248051Y-150641D01*
X248003Y-150545D01*
X247955Y-150498D01*
X247813Y-150450D01*
X247384Y-150450D01*
X247384Y-151450D01*
X248846Y-150926D02*
X248751Y-150831D01*
X248655Y-150783D01*
X248512Y-150783D01*
X248417Y-150831D01*
X248322Y-150926D01*
X248274Y-151069D01*
X248274Y-151164D01*
X248322Y-151307D01*
X248417Y-151402D01*
X248512Y-151450D01*
X248655Y-151450D01*
X248751Y-151402D01*
X248846Y-151307D01*
X249060Y-150450D02*
X249060Y-151450D01*
X249060Y-150926D02*
X249155Y-150831D01*
X249250Y-150783D01*
X249393Y-150783D01*
X249488Y-150831D01*
X249584Y-150926D01*
X249631Y-151069D01*
X249631Y-151164D01*
X249584Y-151307D01*
X249488Y-151402D01*
X249393Y-151450D01*
X249250Y-151450D01*
X249155Y-151402D01*
X249060Y-151307D01*
X249846Y-150450D02*
X249846Y-151450D01*
X249846Y-150450D02*
X250179Y-150450D01*
X250322Y-150498D01*
X250417Y-150593D01*
X250464Y-150688D01*
X250512Y-150831D01*
X250512Y-151069D01*
X250464Y-151212D01*
X250417Y-151307D01*
X250322Y-151402D01*
X250179Y-151450D01*
X249846Y-151450D01*
X250974Y-150783D02*
X250879Y-150831D01*
X250783Y-150926D01*
X250736Y-151069D01*
X250736Y-151164D01*
X250783Y-151307D01*
X250879Y-151402D01*
X250974Y-151450D01*
X251117Y-151450D01*
X251212Y-151402D01*
X251307Y-151307D01*
X251355Y-151164D01*
X251355Y-151069D01*
X251307Y-150926D01*
X251212Y-150831D01*
X251117Y-150783D01*
X250974Y-150783D01*
X252145Y-150926D02*
X252050Y-150831D01*
X251955Y-150783D01*
X251812Y-150783D01*
X251717Y-150831D01*
X251621Y-150926D01*
X251574Y-151069D01*
X251574Y-151164D01*
X251621Y-151307D01*
X251717Y-151402D01*
X251812Y-151450D01*
X251955Y-151450D01*
X252050Y-151402D01*
X252145Y-151307D01*
X240000Y-148902D02*
X240493Y-148902D01*
X240657Y-148848D01*
X240712Y-148793D01*
X240767Y-148683D01*
X240767Y-148519D01*
X240712Y-148410D01*
X240657Y-148355D01*
X240493Y-148300D01*
X240000Y-148300D01*
X240000Y-149450D01*
X241845Y-148574D02*
X241790Y-148464D01*
X241681Y-148355D01*
X241571Y-148300D01*
X241352Y-148300D01*
X241243Y-148355D01*
X241133Y-148464D01*
X241079Y-148574D01*
X241024Y-148738D01*
X241024Y-149012D01*
X241079Y-149176D01*
X241133Y-149286D01*
X241243Y-149395D01*
X241352Y-149450D01*
X241571Y-149450D01*
X241681Y-149395D01*
X241790Y-149286D01*
X241845Y-149176D01*
X242168Y-148300D02*
X242168Y-149450D01*
X242168Y-148300D02*
X242661Y-148300D01*
X242825Y-148355D01*
X242880Y-148410D01*
X242935Y-148519D01*
X242935Y-148629D01*
X242880Y-148738D01*
X242825Y-148793D01*
X242661Y-148848D01*
X242168Y-148848D02*
X242661Y-148848D01*
X242825Y-148902D01*
X242880Y-148957D01*
X242935Y-149067D01*
X242935Y-149231D01*
X242880Y-149340D01*
X242825Y-149395D01*
X242661Y-149450D01*
X242168Y-149450D01*
X244095Y-148300D02*
X244095Y-149450D01*
X244095Y-148300D02*
X244807Y-148300D01*
X244095Y-148848D02*
X244533Y-148848D01*
X244938Y-148300D02*
X244938Y-149450D01*
X245179Y-148300D02*
X245179Y-149450D01*
X245836Y-149450D01*
X246674Y-148300D02*
X245962Y-148300D01*
X245962Y-149450D01*
X246674Y-149450D01*
X245962Y-148848D02*
X246400Y-148848D01*
X247769Y-148300D02*
X247769Y-149450D01*
X247769Y-148300D02*
X248536Y-149450D01*
X248536Y-148300D02*
X248536Y-149450D01*
X249729Y-149450D02*
X249291Y-148300D01*
X248853Y-149450D01*
X249017Y-149067D02*
X249565Y-149067D01*
X249997Y-148300D02*
X249997Y-149450D01*
X249997Y-148300D02*
X250435Y-149450D01*
X250873Y-148300D02*
X250435Y-149450D01*
X250873Y-148300D02*
X250873Y-149450D01*
X251914Y-148300D02*
X251202Y-148300D01*
X251202Y-149450D01*
X251914Y-149450D01*
X251202Y-148848D02*
X251640Y-148848D01*
X252160Y-148683D02*
X252105Y-148738D01*
X252160Y-148793D01*
X252215Y-148738D01*
X252160Y-148683D01*
X252160Y-149340D02*
X252105Y-149395D01*
X252160Y-149450D01*
X252215Y-149395D01*
X252160Y-149340D01*
X268000Y-148050D02*
X268000Y-149200D01*
X268657Y-149200D01*
X269659Y-149200D02*
X269221Y-148050D01*
X268783Y-149200D01*
X268947Y-148817D02*
X269495Y-148817D01*
X269927Y-148050D02*
X270365Y-148598D01*
X270365Y-149200D01*
X270803Y-148050D02*
X270365Y-148598D01*
X271663Y-148050D02*
X270951Y-148050D01*
X270951Y-149200D01*
X271663Y-149200D01*
X270951Y-148598D02*
X271389Y-148598D01*
X271854Y-148050D02*
X271854Y-149200D01*
X271854Y-148050D02*
X272347Y-148050D01*
X272511Y-148105D01*
X272566Y-148160D01*
X272621Y-148269D01*
X272621Y-148379D01*
X272566Y-148488D01*
X272511Y-148543D01*
X272347Y-148598D01*
X271854Y-148598D01*
X272238Y-148598D02*
X272621Y-149200D01*
X273782Y-148050D02*
X273782Y-149200D01*
X273782Y-148050D02*
X274548Y-149200D01*
X274548Y-148050D02*
X274548Y-149200D01*
X275742Y-149200D02*
X275304Y-148050D01*
X274866Y-149200D01*
X275030Y-148817D02*
X275577Y-148817D01*
X276010Y-148050D02*
X276010Y-149200D01*
X276010Y-148050D02*
X276448Y-149200D01*
X276886Y-148050D02*
X276448Y-149200D01*
X276886Y-148050D02*
X276886Y-149200D01*
X277926Y-148050D02*
X277214Y-148050D01*
X277214Y-149200D01*
X277926Y-149200D01*
X277214Y-148598D02*
X277652Y-148598D01*
X278173Y-148433D02*
X278118Y-148488D01*
X278173Y-148543D01*
X278227Y-148488D01*
X278173Y-148433D01*
X278173Y-149090D02*
X278118Y-149145D01*
X278173Y-149200D01*
X278227Y-149145D01*
X278173Y-149090D01*
D14*
X302678Y-150058D02*
X302821Y-149987D01*
X303035Y-149773D01*
X303035Y-151272D01*
X-23824Y82237D02*
X-23655Y82322D01*
X-23401Y82576D01*
X-23401Y80798D01*
X39650Y82152D02*
X39650Y82237D01*
X39735Y82406D01*
X39820Y82491D01*
X39989Y82576D01*
X40328Y82576D01*
X40497Y82491D01*
X40582Y82406D01*
X40666Y82237D01*
X40666Y82068D01*
X40582Y81898D01*
X40412Y81645D01*
X39566Y80798D01*
X40751Y80798D01*
X102964Y82576D02*
X103896Y82576D01*
X103388Y81898D01*
X103642Y81898D01*
X103811Y81814D01*
X103896Y81729D01*
X103980Y81475D01*
X103980Y81306D01*
X103896Y81052D01*
X103726Y80883D01*
X103472Y80798D01*
X103218Y80798D01*
X102964Y80883D01*
X102880Y80967D01*
X102795Y81137D01*
X167311Y82576D02*
X166464Y81391D01*
X167734Y81391D01*
X167311Y82576D02*
X167311Y80798D01*
X230955Y82576D02*
X230108Y82576D01*
X230023Y81814D01*
X230108Y81898D01*
X230362Y81983D01*
X230616Y81983D01*
X230870Y81898D01*
X231039Y81729D01*
X231124Y81475D01*
X231124Y81306D01*
X231039Y81052D01*
X230870Y80883D01*
X230616Y80798D01*
X230362Y80798D01*
X230108Y80883D01*
X230023Y80967D01*
X229939Y81137D01*
X294582Y82322D02*
X294497Y82491D01*
X294243Y82576D01*
X294074Y82576D01*
X293820Y82491D01*
X293650Y82237D01*
X293566Y81814D01*
X293566Y81391D01*
X293650Y81052D01*
X293820Y80883D01*
X294074Y80798D01*
X294158Y80798D01*
X294412Y80883D01*
X294582Y81052D01*
X294666Y81306D01*
X294666Y81391D01*
X294582Y81645D01*
X294412Y81814D01*
X294158Y81898D01*
X294074Y81898D01*
X293820Y81814D01*
X293650Y81645D01*
X293566Y81391D01*
X324079Y51766D02*
X323402Y53543D01*
X322725Y51766D01*
X322979Y52358D02*
X323825Y52358D01*
X322725Y-6909D02*
X322725Y-8686D01*
X322725Y-6909D02*
X323487Y-6909D01*
X323741Y-6993D01*
X323825Y-7078D01*
X323910Y-7247D01*
X323910Y-7416D01*
X323825Y-7586D01*
X323741Y-7670D01*
X323487Y-7755D01*
X322725Y-7755D02*
X323487Y-7755D01*
X323741Y-7840D01*
X323825Y-7924D01*
X323910Y-8094D01*
X323910Y-8348D01*
X323825Y-8517D01*
X323741Y-8602D01*
X323487Y-8686D01*
X322725Y-8686D01*
X323995Y-67657D02*
X323910Y-67488D01*
X323741Y-67318D01*
X323572Y-67234D01*
X323233Y-67234D01*
X323064Y-67318D01*
X322894Y-67488D01*
X322810Y-67657D01*
X322725Y-67911D01*
X322725Y-68334D01*
X322810Y-68588D01*
X322894Y-68757D01*
X323064Y-68927D01*
X323233Y-69011D01*
X323572Y-69011D01*
X323741Y-68927D01*
X323910Y-68757D01*
X323995Y-68588D01*
X322725Y-127432D02*
X322725Y-129209D01*
X322725Y-127432D02*
X323318Y-127432D01*
X323572Y-127516D01*
X323741Y-127686D01*
X323825Y-127855D01*
X323910Y-128109D01*
X323910Y-128532D01*
X323825Y-128786D01*
X323741Y-128955D01*
X323572Y-129125D01*
X323318Y-129209D01*
X322725Y-129209D01*
X-51841Y51766D02*
X-52518Y53543D01*
X-53195Y51766D01*
X-52941Y52358D02*
X-52095Y52358D01*
X-53195Y-6909D02*
X-53195Y-8686D01*
X-53195Y-6909D02*
X-52433Y-6909D01*
X-52179Y-6993D01*
X-52095Y-7078D01*
X-52010Y-7247D01*
X-52010Y-7416D01*
X-52095Y-7586D01*
X-52179Y-7670D01*
X-52433Y-7755D01*
X-53195Y-7755D02*
X-52433Y-7755D01*
X-52179Y-7840D01*
X-52095Y-7924D01*
X-52010Y-8094D01*
X-52010Y-8348D01*
X-52095Y-8517D01*
X-52179Y-8602D01*
X-52433Y-8686D01*
X-53195Y-8686D01*
X-51925Y-67657D02*
X-52010Y-67488D01*
X-52179Y-67318D01*
X-52348Y-67234D01*
X-52687Y-67234D01*
X-52856Y-67318D01*
X-53026Y-67488D01*
X-53110Y-67657D01*
X-53195Y-67911D01*
X-53195Y-68334D01*
X-53110Y-68588D01*
X-53026Y-68757D01*
X-52856Y-68927D01*
X-52687Y-69011D01*
X-52348Y-69011D01*
X-52179Y-68927D01*
X-52010Y-68757D01*
X-51925Y-68588D01*
X-53195Y-127432D02*
X-53195Y-129209D01*
X-53195Y-127432D02*
X-52602Y-127432D01*
X-52348Y-127516D01*
X-52179Y-127686D01*
X-52095Y-127855D01*
X-52010Y-128109D01*
X-52010Y-128532D01*
X-52095Y-128786D01*
X-52179Y-128955D01*
X-52348Y-129125D01*
X-52602Y-129209D01*
X-53195Y-129209D01*
X-23824Y-153983D02*
X-23655Y-153898D01*
X-23401Y-153644D01*
X-23401Y-155422D01*
X39650Y-154068D02*
X39650Y-153983D01*
X39735Y-153814D01*
X39820Y-153729D01*
X39989Y-153644D01*
X40328Y-153644D01*
X40497Y-153729D01*
X40582Y-153814D01*
X40666Y-153983D01*
X40666Y-154152D01*
X40582Y-154322D01*
X40412Y-154575D01*
X39566Y-155422D01*
X40751Y-155422D01*
X102964Y-153644D02*
X103896Y-153644D01*
X103388Y-154322D01*
X103642Y-154322D01*
X103811Y-154406D01*
X103896Y-154491D01*
X103980Y-154745D01*
X103980Y-154914D01*
X103896Y-155168D01*
X103726Y-155337D01*
X103472Y-155422D01*
X103218Y-155422D01*
X102964Y-155337D01*
X102880Y-155253D01*
X102795Y-155083D01*
X167311Y-153644D02*
X166464Y-154829D01*
X167734Y-154829D01*
X167311Y-153644D02*
X167311Y-155422D01*
X230955Y-153644D02*
X230108Y-153644D01*
X230023Y-154406D01*
X230108Y-154322D01*
X230362Y-154237D01*
X230616Y-154237D01*
X230870Y-154322D01*
X231039Y-154491D01*
X231124Y-154745D01*
X231124Y-154914D01*
X231039Y-155168D01*
X230870Y-155337D01*
X230616Y-155422D01*
X230362Y-155422D01*
X230108Y-155337D01*
X230023Y-155253D01*
X229939Y-155083D01*
X294582Y-153898D02*
X294497Y-153729D01*
X294243Y-153644D01*
X294074Y-153644D01*
X293820Y-153729D01*
X293650Y-153983D01*
X293566Y-154406D01*
X293566Y-154829D01*
X293650Y-155168D01*
X293820Y-155337D01*
X294074Y-155422D01*
X294158Y-155422D01*
X294412Y-155337D01*
X294582Y-155168D01*
X294666Y-154914D01*
X294666Y-154829D01*
X294582Y-154575D01*
X294412Y-154406D01*
X294158Y-154322D01*
X294074Y-154322D01*
X293820Y-154406D01*
X293650Y-154575D01*
X293566Y-154829D01*
X268071Y-139343D02*
X268000Y-139272D01*
X268071Y-139200D01*
X268143Y-139272D01*
X268143Y-139415D01*
X268071Y-139557D01*
X268000Y-139629D01*
X268900Y-139200D02*
X268686Y-139272D01*
X268543Y-139486D01*
X268471Y-139843D01*
X268471Y-140057D01*
X268543Y-140414D01*
X268686Y-140629D01*
X268900Y-140700D01*
X269043Y-140700D01*
X269257Y-140629D01*
X269400Y-140414D01*
X269471Y-140057D01*
X269471Y-139843D01*
X269400Y-139486D01*
X269257Y-139272D01*
X269043Y-139200D01*
X268900Y-139200D01*
X270521Y-139200D02*
X269807Y-140200D01*
X270878Y-140200D01*
X270521Y-139200D02*
X270521Y-140700D01*
X271142Y-140057D02*
X272428Y-140057D01*
X272870Y-139486D02*
X273013Y-139415D01*
X273227Y-139200D01*
X273227Y-140700D01*
X274042Y-139557D02*
X274042Y-139486D01*
X274113Y-139343D01*
X274184Y-139272D01*
X274327Y-139200D01*
X274613Y-139200D01*
X274756Y-139272D01*
X274827Y-139343D01*
X274899Y-139486D01*
X274899Y-139629D01*
X274827Y-139772D01*
X274684Y-139986D01*
X273970Y-140700D01*
X274970Y-140700D01*
X275448Y-139200D02*
X276234Y-139200D01*
X275805Y-139772D01*
X276020Y-139772D01*
X276163Y-139843D01*
X276234Y-139914D01*
X276305Y-140129D01*
X276305Y-140271D01*
X276234Y-140486D01*
X276091Y-140629D01*
X275877Y-140700D01*
X275663Y-140700D01*
X275448Y-140629D01*
X275377Y-140557D01*
X275306Y-140414D01*
X276712Y-139557D02*
X276712Y-139486D01*
X276784Y-139343D01*
X276855Y-139272D01*
X276998Y-139200D01*
X277284Y-139200D01*
X277427Y-139272D01*
X277498Y-139343D01*
X277569Y-139486D01*
X277569Y-139629D01*
X277498Y-139772D01*
X277355Y-139986D01*
X276641Y-140700D01*
X277641Y-140700D01*
X277976Y-139486D02*
X278119Y-139415D01*
X278334Y-139200D01*
X278334Y-140700D01*
X279076Y-140057D02*
X280362Y-140057D01*
X280804Y-139200D02*
X280804Y-140700D01*
X280804Y-139200D02*
X281447Y-139200D01*
X281661Y-139272D01*
X281733Y-139343D01*
X281804Y-139486D01*
X281804Y-139629D01*
X281733Y-139772D01*
X281661Y-139843D01*
X281447Y-139914D01*
X280804Y-139914D01*
X281304Y-139914D02*
X281804Y-140700D01*
X282140Y-139486D02*
X282283Y-139415D01*
X282497Y-139200D01*
X282497Y-140700D01*
X283311Y-140557D02*
X283240Y-140629D01*
X283311Y-140700D01*
X283382Y-140629D01*
X283311Y-140557D01*
X284782Y-139557D02*
X284711Y-139415D01*
X284568Y-139272D01*
X284425Y-139200D01*
X284139Y-139200D01*
X283997Y-139272D01*
X283854Y-139415D01*
X283782Y-139557D01*
X283711Y-139772D01*
X283711Y-140129D01*
X283782Y-140343D01*
X283854Y-140486D01*
X283997Y-140629D01*
X284139Y-140700D01*
X284425Y-140700D01*
X284568Y-140629D01*
X284711Y-140486D01*
X284782Y-140343D01*
X284782Y-140129D01*
X284425Y-140129D02*
X284782Y-140129D01*
X285125Y-139200D02*
X285125Y-140700D01*
X285125Y-139200D02*
X285768Y-139200D01*
X285982Y-139272D01*
X286053Y-139343D01*
X286125Y-139486D01*
X286125Y-139629D01*
X286053Y-139772D01*
X285982Y-139843D01*
X285768Y-139914D01*
X285125Y-139914D02*
X285768Y-139914D01*
X285982Y-139986D01*
X286053Y-140057D01*
X286125Y-140200D01*
X286125Y-140414D01*
X286053Y-140557D01*
X285982Y-140629D01*
X285768Y-140700D01*
X285125Y-140700D01*
X286460Y-139200D02*
X286460Y-140700D01*
X287317Y-140700D01*
X287553Y-139343D02*
X287482Y-139272D01*
X287553Y-139200D01*
X287624Y-139272D01*
X287624Y-139415D01*
X287553Y-139557D01*
X287482Y-139629D01*
X206770Y-144182D02*
X206770Y-145960D01*
X206770Y-144182D02*
X207447Y-145960D01*
X208124Y-144182D02*
X207447Y-145960D01*
X208124Y-144182D02*
X208124Y-145960D01*
X208802Y-144182D02*
X208886Y-144267D01*
X208971Y-144182D01*
X208886Y-144098D01*
X208802Y-144182D01*
X208886Y-144775D02*
X208886Y-145960D01*
X210300Y-145029D02*
X210131Y-144860D01*
X209961Y-144775D01*
X209707Y-144775D01*
X209538Y-144860D01*
X209369Y-145029D01*
X209284Y-145283D01*
X209284Y-145452D01*
X209369Y-145706D01*
X209538Y-145875D01*
X209707Y-145960D01*
X209961Y-145960D01*
X210131Y-145875D01*
X210300Y-145706D01*
X210681Y-144775D02*
X210681Y-145960D01*
X210681Y-145283D02*
X210765Y-145029D01*
X210935Y-144860D01*
X211104Y-144775D01*
X211358Y-144775D01*
X211942Y-144775D02*
X211773Y-144860D01*
X211603Y-145029D01*
X211519Y-145283D01*
X211519Y-145452D01*
X211603Y-145706D01*
X211773Y-145875D01*
X211942Y-145960D01*
X212196Y-145960D01*
X212365Y-145875D01*
X212535Y-145706D01*
X212619Y-145452D01*
X212619Y-145283D01*
X212535Y-145029D01*
X212365Y-144860D01*
X212196Y-144775D01*
X211942Y-144775D01*
X214024Y-145029D02*
X213855Y-144860D01*
X213686Y-144775D01*
X213432Y-144775D01*
X213263Y-144860D01*
X213093Y-145029D01*
X213009Y-145283D01*
X213009Y-145452D01*
X213093Y-145706D01*
X213263Y-145875D01*
X213432Y-145960D01*
X213686Y-145960D01*
X213855Y-145875D01*
X214024Y-145706D01*
X214405Y-144182D02*
X214405Y-145960D01*
X214405Y-145113D02*
X214659Y-144860D01*
X214829Y-144775D01*
X215083Y-144775D01*
X215252Y-144860D01*
X215336Y-145113D01*
X215336Y-145960D01*
X215971Y-144182D02*
X216056Y-144267D01*
X216141Y-144182D01*
X216056Y-144098D01*
X215971Y-144182D01*
X216056Y-144775D02*
X216056Y-145960D01*
X216454Y-144775D02*
X216454Y-146553D01*
X216454Y-145029D02*
X216623Y-144860D01*
X216792Y-144775D01*
X217046Y-144775D01*
X217216Y-144860D01*
X217385Y-145029D01*
X217470Y-145283D01*
X217470Y-145452D01*
X217385Y-145706D01*
X217216Y-145875D01*
X217046Y-145960D01*
X216792Y-145960D01*
X216623Y-145875D01*
X216454Y-145706D01*
X219840Y-144182D02*
X219840Y-145960D01*
X219247Y-144182D02*
X220432Y-144182D01*
X220644Y-145283D02*
X221660Y-145283D01*
X221660Y-145113D01*
X221575Y-144944D01*
X221490Y-144860D01*
X221321Y-144775D01*
X221067Y-144775D01*
X220898Y-144860D01*
X220729Y-145029D01*
X220644Y-145283D01*
X220644Y-145452D01*
X220729Y-145706D01*
X220898Y-145875D01*
X221067Y-145960D01*
X221321Y-145960D01*
X221490Y-145875D01*
X221660Y-145706D01*
X223056Y-145029D02*
X222887Y-144860D01*
X222718Y-144775D01*
X222464Y-144775D01*
X222295Y-144860D01*
X222125Y-145029D01*
X222041Y-145283D01*
X222041Y-145452D01*
X222125Y-145706D01*
X222295Y-145875D01*
X222464Y-145960D01*
X222718Y-145960D01*
X222887Y-145875D01*
X223056Y-145706D01*
X223437Y-144182D02*
X223437Y-145960D01*
X223437Y-145113D02*
X223691Y-144860D01*
X223861Y-144775D01*
X224115Y-144775D01*
X224284Y-144860D01*
X224368Y-145113D01*
X224368Y-145960D01*
X224834Y-144775D02*
X224834Y-145960D01*
X224834Y-145113D02*
X225088Y-144860D01*
X225257Y-144775D01*
X225511Y-144775D01*
X225681Y-144860D01*
X225765Y-145113D01*
X225765Y-145960D01*
X226654Y-144775D02*
X226485Y-144860D01*
X226315Y-145029D01*
X226231Y-145283D01*
X226231Y-145452D01*
X226315Y-145706D01*
X226485Y-145875D01*
X226654Y-145960D01*
X226908Y-145960D01*
X227077Y-145875D01*
X227247Y-145706D01*
X227331Y-145452D01*
X227331Y-145283D01*
X227247Y-145029D01*
X227077Y-144860D01*
X226908Y-144775D01*
X226654Y-144775D01*
X227721Y-144182D02*
X227721Y-145960D01*
X228516Y-144775D02*
X228347Y-144860D01*
X228178Y-145029D01*
X228093Y-145283D01*
X228093Y-145452D01*
X228178Y-145706D01*
X228347Y-145875D01*
X228516Y-145960D01*
X228770Y-145960D01*
X228939Y-145875D01*
X229109Y-145706D01*
X229193Y-145452D01*
X229193Y-145283D01*
X229109Y-145029D01*
X228939Y-144860D01*
X228770Y-144775D01*
X228516Y-144775D01*
X230599Y-144775D02*
X230599Y-146129D01*
X230514Y-146383D01*
X230429Y-146468D01*
X230260Y-146553D01*
X230006Y-146553D01*
X229837Y-146468D01*
X230599Y-145029D02*
X230429Y-144860D01*
X230260Y-144775D01*
X230006Y-144775D01*
X229837Y-144860D01*
X229667Y-145029D01*
X229583Y-145283D01*
X229583Y-145452D01*
X229667Y-145706D01*
X229837Y-145875D01*
X230006Y-145960D01*
X230260Y-145960D01*
X230429Y-145875D01*
X230599Y-145706D01*
X231157Y-144775D02*
X231665Y-145960D01*
X232173Y-144775D02*
X231665Y-145960D01*
X231496Y-146299D01*
X231327Y-146468D01*
X231157Y-146553D01*
X231073Y-146553D01*
X233866Y-144182D02*
X233866Y-145960D01*
X234238Y-144775D02*
X234238Y-145960D01*
X234238Y-145113D02*
X234492Y-144860D01*
X234662Y-144775D01*
X234916Y-144775D01*
X235085Y-144860D01*
X235170Y-145113D01*
X235170Y-145960D01*
X236651Y-145029D02*
X236482Y-144860D01*
X236312Y-144775D01*
X236058Y-144775D01*
X235889Y-144860D01*
X235720Y-145029D01*
X235635Y-145283D01*
X235635Y-145452D01*
X235720Y-145706D01*
X235889Y-145875D01*
X236058Y-145960D01*
X236312Y-145960D01*
X236482Y-145875D01*
X236651Y-145706D01*
X237117Y-145791D02*
X237032Y-145875D01*
X237117Y-145960D01*
X237201Y-145875D01*
X237117Y-145791D01*
X208085Y-147346D02*
X208085Y-147261D01*
X208169Y-147092D01*
X208254Y-147007D01*
X208423Y-146922D01*
X208762Y-146922D01*
X208931Y-147007D01*
X209016Y-147092D01*
X209100Y-147261D01*
X209100Y-147430D01*
X209016Y-147600D01*
X208847Y-147853D01*
X208000Y-148700D01*
X209185Y-148700D01*
X209752Y-146922D02*
X210683Y-146922D01*
X210175Y-147600D01*
X210429Y-147600D01*
X210599Y-147684D01*
X210683Y-147769D01*
X210768Y-148023D01*
X210768Y-148192D01*
X210683Y-148446D01*
X210514Y-148615D01*
X210260Y-148700D01*
X210006Y-148700D01*
X209752Y-148615D01*
X209668Y-148531D01*
X209583Y-148361D01*
X212182Y-146922D02*
X211335Y-146922D01*
X211251Y-147684D01*
X211335Y-147600D01*
X211589Y-147515D01*
X211843Y-147515D01*
X212097Y-147600D01*
X212266Y-147769D01*
X212351Y-148023D01*
X212351Y-148192D01*
X212266Y-148446D01*
X212097Y-148615D01*
X211843Y-148700D01*
X211589Y-148700D01*
X211335Y-148615D01*
X211251Y-148531D01*
X211166Y-148361D01*
X213765Y-146922D02*
X212918Y-146922D01*
X212833Y-147684D01*
X212918Y-147600D01*
X213172Y-147515D01*
X213426Y-147515D01*
X213680Y-147600D01*
X213849Y-147769D01*
X213934Y-148023D01*
X213934Y-148192D01*
X213849Y-148446D01*
X213680Y-148615D01*
X213426Y-148700D01*
X213172Y-148700D01*
X212918Y-148615D01*
X212833Y-148531D01*
X212749Y-148361D01*
X215728Y-146922D02*
X216152Y-148700D01*
X216575Y-146922D02*
X216152Y-148700D01*
X216575Y-146922D02*
X216998Y-148700D01*
X217421Y-146922D02*
X216998Y-148700D01*
X217862Y-148531D02*
X217777Y-148615D01*
X217862Y-148700D01*
X217946Y-148615D01*
X217862Y-148531D01*
X221002Y-147346D02*
X220917Y-147176D01*
X220748Y-147007D01*
X220579Y-146922D01*
X220240Y-146922D01*
X220071Y-147007D01*
X219902Y-147176D01*
X219817Y-147346D01*
X219732Y-147600D01*
X219732Y-148023D01*
X219817Y-148277D01*
X219902Y-148446D01*
X220071Y-148615D01*
X220240Y-148700D01*
X220579Y-148700D01*
X220748Y-148615D01*
X220917Y-148446D01*
X221002Y-148277D01*
X221501Y-146922D02*
X221501Y-148700D01*
X221501Y-147853D02*
X221755Y-147600D01*
X221925Y-147515D01*
X222179Y-147515D01*
X222348Y-147600D01*
X222433Y-147853D01*
X222433Y-148700D01*
X223914Y-147515D02*
X223914Y-148700D01*
X223914Y-147769D02*
X223745Y-147600D01*
X223575Y-147515D01*
X223321Y-147515D01*
X223152Y-147600D01*
X222983Y-147769D01*
X222898Y-148023D01*
X222898Y-148192D01*
X222983Y-148446D01*
X223152Y-148615D01*
X223321Y-148700D01*
X223575Y-148700D01*
X223745Y-148615D01*
X223914Y-148446D01*
X224388Y-147515D02*
X224388Y-148700D01*
X224388Y-147853D02*
X224642Y-147600D01*
X224811Y-147515D01*
X225065Y-147515D01*
X225234Y-147600D01*
X225319Y-147853D01*
X225319Y-148700D01*
X226800Y-146922D02*
X226800Y-148700D01*
X226800Y-147769D02*
X226631Y-147600D01*
X226462Y-147515D01*
X226208Y-147515D01*
X226039Y-147600D01*
X225869Y-147769D01*
X225785Y-148023D01*
X225785Y-148192D01*
X225869Y-148446D01*
X226039Y-148615D01*
X226208Y-148700D01*
X226462Y-148700D01*
X226631Y-148615D01*
X226800Y-148446D01*
X227275Y-146922D02*
X227275Y-148700D01*
X227647Y-148023D02*
X228663Y-148023D01*
X228663Y-147853D01*
X228578Y-147684D01*
X228493Y-147600D01*
X228324Y-147515D01*
X228070Y-147515D01*
X227901Y-147600D01*
X227732Y-147769D01*
X227647Y-148023D01*
X227647Y-148192D01*
X227732Y-148446D01*
X227901Y-148615D01*
X228070Y-148700D01*
X228324Y-148700D01*
X228493Y-148615D01*
X228663Y-148446D01*
X229044Y-147515D02*
X229044Y-148700D01*
X229044Y-148023D02*
X229128Y-147769D01*
X229298Y-147600D01*
X229467Y-147515D01*
X229721Y-147515D01*
X231278Y-146922D02*
X231278Y-148700D01*
X231278Y-146922D02*
X232040Y-146922D01*
X232294Y-147007D01*
X232379Y-147092D01*
X232463Y-147261D01*
X232463Y-147430D01*
X232379Y-147600D01*
X232294Y-147684D01*
X232040Y-147769D01*
X231278Y-147769D02*
X232040Y-147769D01*
X232294Y-147853D01*
X232379Y-147938D01*
X232463Y-148107D01*
X232463Y-148361D01*
X232379Y-148531D01*
X232294Y-148615D01*
X232040Y-148700D01*
X231278Y-148700D01*
X232861Y-146922D02*
X232861Y-148700D01*
X233234Y-147515D02*
X233742Y-148700D01*
X234250Y-147515D02*
X233742Y-148700D01*
X235553Y-146922D02*
X235553Y-148700D01*
X235553Y-147769D02*
X235384Y-147600D01*
X235215Y-147515D01*
X234961Y-147515D01*
X234791Y-147600D01*
X234622Y-147769D01*
X234537Y-148023D01*
X234537Y-148192D01*
X234622Y-148446D01*
X234791Y-148615D01*
X234961Y-148700D01*
X235215Y-148700D01*
X235384Y-148615D01*
X235553Y-148446D01*
X236112Y-148531D02*
X236027Y-148615D01*
X236112Y-148700D01*
X236196Y-148615D01*
X236112Y-148531D01*
X210270Y-149846D02*
X210185Y-149676D01*
X210016Y-149507D01*
X209847Y-149422D01*
X209508Y-149422D01*
X209339Y-149507D01*
X209169Y-149676D01*
X209085Y-149846D01*
X209000Y-150100D01*
X209000Y-150523D01*
X209085Y-150777D01*
X209169Y-150946D01*
X209339Y-151115D01*
X209508Y-151200D01*
X209847Y-151200D01*
X210016Y-151115D01*
X210185Y-150946D01*
X210270Y-150777D01*
X210769Y-149422D02*
X210769Y-151200D01*
X210769Y-150353D02*
X211023Y-150100D01*
X211192Y-150015D01*
X211446Y-150015D01*
X211616Y-150100D01*
X211700Y-150353D01*
X211700Y-151200D01*
X213182Y-150015D02*
X213182Y-151200D01*
X213182Y-150269D02*
X213012Y-150100D01*
X212843Y-150015D01*
X212589Y-150015D01*
X212420Y-150100D01*
X212251Y-150269D01*
X212166Y-150523D01*
X212166Y-150692D01*
X212251Y-150946D01*
X212420Y-151115D01*
X212589Y-151200D01*
X212843Y-151200D01*
X213012Y-151115D01*
X213182Y-150946D01*
X213656Y-150015D02*
X213656Y-151200D01*
X213656Y-150353D02*
X213910Y-150100D01*
X214079Y-150015D01*
X214333Y-150015D01*
X214502Y-150100D01*
X214587Y-150353D01*
X214587Y-151200D01*
X216068Y-149422D02*
X216068Y-151200D01*
X216068Y-150269D02*
X215899Y-150100D01*
X215730Y-150015D01*
X215476Y-150015D01*
X215306Y-150100D01*
X215137Y-150269D01*
X215052Y-150523D01*
X215052Y-150692D01*
X215137Y-150946D01*
X215306Y-151115D01*
X215476Y-151200D01*
X215730Y-151200D01*
X215899Y-151115D01*
X216068Y-150946D01*
X216542Y-149422D02*
X216542Y-151200D01*
X216915Y-150523D02*
X217930Y-150523D01*
X217930Y-150353D01*
X217846Y-150184D01*
X217761Y-150100D01*
X217592Y-150015D01*
X217338Y-150015D01*
X217169Y-150100D01*
X216999Y-150269D01*
X216915Y-150523D01*
X216915Y-150692D01*
X216999Y-150946D01*
X217169Y-151115D01*
X217338Y-151200D01*
X217592Y-151200D01*
X217761Y-151115D01*
X217930Y-150946D01*
X218311Y-150015D02*
X218311Y-151200D01*
X218311Y-150523D02*
X218396Y-150269D01*
X218565Y-150100D01*
X218735Y-150015D01*
X218989Y-150015D01*
X219319Y-151115D02*
X219234Y-151200D01*
X219149Y-151115D01*
X219234Y-151031D01*
X219319Y-151115D01*
X219319Y-151285D01*
X219234Y-151454D01*
X219149Y-151539D01*
X222459Y-151200D02*
X221782Y-149422D01*
X221105Y-151200D01*
X221359Y-150607D02*
X222205Y-150607D01*
X224059Y-149422D02*
X222874Y-151200D01*
X222874Y-149422D02*
X224059Y-149422D01*
X222874Y-151200D02*
X224059Y-151200D01*
X227673Y-149422D02*
X227420Y-149507D01*
X227335Y-149676D01*
X227335Y-149846D01*
X227420Y-150015D01*
X227589Y-150100D01*
X227927Y-150184D01*
X228181Y-150269D01*
X228351Y-150438D01*
X228435Y-150607D01*
X228435Y-150861D01*
X228351Y-151031D01*
X228266Y-151115D01*
X228012Y-151200D01*
X227673Y-151200D01*
X227420Y-151115D01*
X227335Y-151031D01*
X227250Y-150861D01*
X227250Y-150607D01*
X227335Y-150438D01*
X227504Y-150269D01*
X227758Y-150184D01*
X228097Y-150100D01*
X228266Y-150015D01*
X228351Y-149846D01*
X228351Y-149676D01*
X228266Y-149507D01*
X228012Y-149422D01*
X227673Y-149422D01*
X229849Y-149422D02*
X229002Y-149422D01*
X228918Y-150184D01*
X229002Y-150100D01*
X229256Y-150015D01*
X229510Y-150015D01*
X229764Y-150100D01*
X229934Y-150269D01*
X230018Y-150523D01*
X230018Y-150692D01*
X229934Y-150946D01*
X229764Y-151115D01*
X229510Y-151200D01*
X229256Y-151200D01*
X229002Y-151115D01*
X228918Y-151031D01*
X228833Y-150861D01*
X230501Y-149846D02*
X230501Y-149761D01*
X230585Y-149592D01*
X230670Y-149507D01*
X230839Y-149422D01*
X231178Y-149422D01*
X231347Y-149507D01*
X231432Y-149592D01*
X231517Y-149761D01*
X231517Y-149930D01*
X231432Y-150100D01*
X231263Y-150353D01*
X230416Y-151200D01*
X231601Y-151200D01*
X232084Y-149846D02*
X232084Y-149761D01*
X232168Y-149592D01*
X232253Y-149507D01*
X232422Y-149422D01*
X232761Y-149422D01*
X232930Y-149507D01*
X233015Y-149592D01*
X233099Y-149761D01*
X233099Y-149930D01*
X233015Y-150100D01*
X232846Y-150353D01*
X231999Y-151200D01*
X233184Y-151200D01*
X234428Y-149422D02*
X233582Y-150607D01*
X234852Y-150607D01*
X234428Y-149422D02*
X234428Y-151200D01*
X240000Y-139100D02*
X240000Y-140700D01*
X240000Y-139100D02*
X240990Y-139100D01*
X240000Y-139862D02*
X240609Y-139862D01*
X241173Y-139100D02*
X241173Y-140700D01*
X241889Y-139634D02*
X241737Y-139710D01*
X241584Y-139862D01*
X241508Y-140091D01*
X241508Y-140243D01*
X241584Y-140471D01*
X241737Y-140624D01*
X241889Y-140700D01*
X242118Y-140700D01*
X242270Y-140624D01*
X242422Y-140471D01*
X242499Y-140243D01*
X242499Y-140091D01*
X242422Y-139862D01*
X242270Y-139710D01*
X242118Y-139634D01*
X241889Y-139634D01*
X242849Y-139634D02*
X242849Y-140700D01*
X242849Y-140091D02*
X242925Y-139862D01*
X243077Y-139710D01*
X243230Y-139634D01*
X243458Y-139634D01*
X243755Y-139100D02*
X243832Y-139176D01*
X243908Y-139100D01*
X243832Y-139024D01*
X243755Y-139100D01*
X243832Y-139634D02*
X243832Y-140700D01*
X244190Y-139634D02*
X244190Y-140700D01*
X244190Y-139938D02*
X244418Y-139710D01*
X244570Y-139634D01*
X244799Y-139634D01*
X244951Y-139710D01*
X245028Y-139938D01*
X245028Y-140700D01*
X246703Y-139938D02*
X247389Y-139938D01*
X247617Y-139862D01*
X247694Y-139786D01*
X247770Y-139634D01*
X247770Y-139405D01*
X247694Y-139253D01*
X247617Y-139176D01*
X247389Y-139100D01*
X246703Y-139100D01*
X246703Y-140700D01*
X249042Y-139634D02*
X249042Y-140700D01*
X249042Y-139862D02*
X248890Y-139710D01*
X248737Y-139634D01*
X248509Y-139634D01*
X248356Y-139710D01*
X248204Y-139862D01*
X248128Y-140091D01*
X248128Y-140243D01*
X248204Y-140471D01*
X248356Y-140624D01*
X248509Y-140700D01*
X248737Y-140700D01*
X248890Y-140624D01*
X249042Y-140471D01*
X249468Y-139634D02*
X249468Y-140395D01*
X249545Y-140624D01*
X249697Y-140700D01*
X249926Y-140700D01*
X250078Y-140624D01*
X250306Y-140395D01*
X250306Y-139634D02*
X250306Y-140700D01*
X250725Y-139634D02*
X250725Y-140700D01*
X250725Y-139938D02*
X250954Y-139710D01*
X251106Y-139634D01*
X251335Y-139634D01*
X251487Y-139710D01*
X251563Y-139938D01*
X251563Y-140700D01*
D15*
X262400Y79020D02*
X262400Y84100D01*
X198900Y79020D02*
X198900Y84100D01*
X135400Y79020D02*
X135400Y84100D01*
X71900Y79020D02*
X71900Y84100D01*
X-50020Y79020D02*
X320820Y79020D01*
X-55100Y84100D02*
X325900Y84100D01*
X8400Y79020D02*
X8400Y84100D01*
X320820Y-152120D02*
X320820Y79020D01*
X325900Y-157200D02*
X325900Y84100D01*
X320820Y23775D02*
X325900Y23775D01*
X320820Y-36550D02*
X325900Y-36550D01*
X320820Y-96875D02*
X325900Y-96875D01*
X262400Y-157200D02*
X262400Y-152120D01*
X198900Y-157200D02*
X198900Y-152120D01*
X135400Y-157200D02*
X135400Y-152120D01*
X71900Y-157200D02*
X71900Y-152120D01*
X320820Y-152120D02*
X320820Y-121640D01*
X-55100Y-157200D02*
X-55100Y84100D01*
X-55100Y-157200D02*
X325900Y-157200D01*
X-50020Y-152120D02*
X-50020Y79020D01*
X-50020Y-152120D02*
X320820Y-152120D01*
X-55100Y23775D02*
X-50020Y23775D01*
X-55100Y-36550D02*
X-50020Y-36550D01*
X-55100Y-96875D02*
X-50020Y-96875D01*
X8400Y-157200D02*
X8400Y-152120D01*
X170960Y-152120D02*
X206520Y-152120D01*
X205000Y-126700D02*
X320820Y-126700D01*
X239000Y-135700D02*
X320820Y-135700D01*
X239000Y-141700D02*
X320820Y-141700D01*
X239000Y-147700D02*
X320820Y-147700D01*
X205000Y-152120D02*
X320820Y-152120D01*
X320820Y-126700D01*
X239000Y-152120D02*
X239000Y-126700D01*
X205000Y-152120D02*
X205000Y-126700D01*
X305500Y-152120D02*
X305500Y-141700D01*
X285000Y-147700D02*
X285000Y-141700D01*
X267000Y-152120D02*
X267000Y-135700D01*
X298000Y-152120D02*
X298000Y-147700D01*
D16*
X239000Y-134200D02*
X320820Y-134200D01*
X291000Y-129700D02*
X320820Y-129700D01*
X309700Y-149000D02*
X319700Y-149000D01*
X309540Y-150700D02*
X319700Y-150700D01*
X291000Y-129700D02*
X291000Y-126700D01*
X319700Y-151335D02*
X319700Y-150065D01*
X319700Y-149500D02*
X319700Y-148500D01*
X317160Y-151335D02*
X317160Y-150065D01*
X314620Y-151335D02*
X314620Y-150065D01*
X312080Y-151335D02*
X312080Y-150065D01*
X309540Y-151335D02*
X309540Y-150065D01*
X309700Y-149500D02*
X309700Y-148500D01*
X320820Y-129700D02*
X320820Y-129700D01*
X314700Y-149300D02*
X314700Y-148700D01*
X306000Y-148733D02*
X306067Y-148700D01*
X306167Y-148600D01*
X306167Y-149300D01*
X306713Y-148600D02*
X306613Y-148633D01*
X306547Y-148733D01*
X306513Y-148900D01*
X306513Y-149000D01*
X306547Y-149167D01*
X306613Y-149267D01*
X306713Y-149300D01*
X306780Y-149300D01*
X306880Y-149267D01*
X306947Y-149167D01*
X306980Y-149000D01*
X306980Y-148900D01*
X306947Y-148733D01*
X306880Y-148633D01*
X306780Y-148600D01*
X306713Y-148600D01*
X307136Y-148833D02*
X307136Y-149300D01*
X307136Y-148967D02*
X307236Y-148867D01*
X307303Y-148833D01*
X307403Y-148833D01*
X307470Y-148867D01*
X307503Y-148967D01*
X307503Y-149300D01*
X307503Y-148967D02*
X307603Y-148867D01*
X307670Y-148833D01*
X307770Y-148833D01*
X307836Y-148867D01*
X307870Y-148967D01*
X307870Y-149300D01*
X308090Y-148833D02*
X308090Y-149300D01*
X308090Y-148967D02*
X308190Y-148867D01*
X308256Y-148833D01*
X308356Y-148833D01*
X308423Y-148867D01*
X308456Y-148967D01*
X308456Y-149300D01*
X308456Y-148967D02*
X308556Y-148867D01*
X308623Y-148833D01*
X308723Y-148833D01*
X308789Y-148867D01*
X308823Y-148967D01*
X308823Y-149300D01*
X306233Y-150300D02*
X305900Y-150767D01*
X306400Y-150767D01*
X306233Y-150300D02*
X306233Y-151000D01*
X306723Y-150300D02*
X306623Y-150333D01*
X306557Y-150433D01*
X306523Y-150600D01*
X306523Y-150700D01*
X306557Y-150867D01*
X306623Y-150967D01*
X306723Y-151000D01*
X306790Y-151000D01*
X306890Y-150967D01*
X306956Y-150867D01*
X306990Y-150700D01*
X306990Y-150600D01*
X306956Y-150433D01*
X306890Y-150333D01*
X306790Y-150300D01*
X306723Y-150300D01*
X307346Y-150300D02*
X307246Y-150333D01*
X307180Y-150433D01*
X307146Y-150600D01*
X307146Y-150700D01*
X307180Y-150867D01*
X307246Y-150967D01*
X307346Y-151000D01*
X307413Y-151000D01*
X307513Y-150967D01*
X307580Y-150867D01*
X307613Y-150700D01*
X307613Y-150600D01*
X307580Y-150433D01*
X307513Y-150333D01*
X307413Y-150300D01*
X307346Y-150300D01*
X307770Y-150533D02*
X307770Y-151000D01*
X307770Y-150667D02*
X307870Y-150567D01*
X307936Y-150533D01*
X308036Y-150533D01*
X308103Y-150567D01*
X308136Y-150667D01*
X308136Y-151000D01*
X308136Y-150667D02*
X308236Y-150567D01*
X308303Y-150533D01*
X308403Y-150533D01*
X308469Y-150567D01*
X308503Y-150667D01*
X308503Y-151000D01*
X308789Y-150300D02*
X308823Y-150333D01*
X308856Y-150300D01*
X308823Y-150267D01*
X308789Y-150300D01*
X308823Y-150533D02*
X308823Y-151000D01*
X308979Y-150300D02*
X308979Y-151000D01*
D17*
X240000Y-130701D02*
X240000Y-133200D01*
X240000Y-130701D02*
X240952Y-133200D01*
X241904Y-130701D02*
X240952Y-133200D01*
X241904Y-130701D02*
X241904Y-133200D01*
X244404Y-131296D02*
X244285Y-131058D01*
X244047Y-130820D01*
X243809Y-130701D01*
X243333Y-130701D01*
X243095Y-130820D01*
X242857Y-131058D01*
X242738Y-131296D01*
X242619Y-131653D01*
X242619Y-132248D01*
X242738Y-132605D01*
X242857Y-132843D01*
X243095Y-133081D01*
X243333Y-133200D01*
X243809Y-133200D01*
X244047Y-133081D01*
X244285Y-132843D01*
X244404Y-132605D01*
X245106Y-132010D02*
X246177Y-132010D01*
X246534Y-131891D01*
X246653Y-131772D01*
X246772Y-131534D01*
X246772Y-131177D01*
X246653Y-130939D01*
X246534Y-130820D01*
X246177Y-130701D01*
X245106Y-130701D01*
X245106Y-133200D01*
X247451Y-131296D02*
X247451Y-131177D01*
X247570Y-130939D01*
X247689Y-130820D01*
X247927Y-130701D01*
X248403Y-130701D01*
X248641Y-130820D01*
X248760Y-130939D01*
X248879Y-131177D01*
X248879Y-131415D01*
X248760Y-131653D01*
X248522Y-132010D01*
X247332Y-133200D01*
X248998Y-133200D01*
X249677Y-131296D02*
X249677Y-131177D01*
X249796Y-130939D01*
X249915Y-130820D01*
X250153Y-130701D01*
X250629Y-130701D01*
X250867Y-130820D01*
X250986Y-130939D01*
X251105Y-131177D01*
X251105Y-131415D01*
X250986Y-131653D01*
X250748Y-132010D01*
X249557Y-133200D01*
X251224Y-133200D01*
X252021Y-130701D02*
X253331Y-130701D01*
X252616Y-131653D01*
X252973Y-131653D01*
X253211Y-131772D01*
X253331Y-131891D01*
X253450Y-132248D01*
X253450Y-132486D01*
X253331Y-132843D01*
X253092Y-133081D01*
X252735Y-133200D01*
X252378Y-133200D01*
X252021Y-133081D01*
X251902Y-132962D01*
X251783Y-132724D01*
X254723Y-130701D02*
X254366Y-130820D01*
X254128Y-131177D01*
X254009Y-131772D01*
X254009Y-132129D01*
X254128Y-132724D01*
X254366Y-133081D01*
X254723Y-133200D01*
X254961Y-133200D01*
X255318Y-133081D01*
X255556Y-132724D01*
X255675Y-132129D01*
X255675Y-131772D01*
X255556Y-131177D01*
X255318Y-130820D01*
X254961Y-130701D01*
X254723Y-130701D01*
X256235Y-131177D02*
X256473Y-131058D01*
X256830Y-130701D01*
X256830Y-133200D01*
X261698Y-131058D02*
X261460Y-130820D01*
X261103Y-130701D01*
X260627Y-130701D01*
X260270Y-130820D01*
X260031Y-131058D01*
X260031Y-131296D01*
X260150Y-131534D01*
X260270Y-131653D01*
X260508Y-131772D01*
X261222Y-132010D01*
X261460Y-132129D01*
X261579Y-132248D01*
X261698Y-132486D01*
X261698Y-132843D01*
X261460Y-133081D01*
X261103Y-133200D01*
X260627Y-133200D01*
X260270Y-133081D01*
X260031Y-132843D01*
X262495Y-130701D02*
X262614Y-130820D01*
X262733Y-130701D01*
X262614Y-130581D01*
X262495Y-130701D01*
X262614Y-131534D02*
X262614Y-133200D01*
X263174Y-131534D02*
X263174Y-133200D01*
X263174Y-132010D02*
X263531Y-131653D01*
X263769Y-131534D01*
X264126Y-131534D01*
X264364Y-131653D01*
X264483Y-132010D01*
X264483Y-133200D01*
X265137Y-130701D02*
X265137Y-133200D01*
X266328Y-131534D02*
X265137Y-132724D01*
X265614Y-132248D02*
X266447Y-133200D01*
X268803Y-130701D02*
X268803Y-133200D01*
X268803Y-130701D02*
X269875Y-130701D01*
X270232Y-130820D01*
X270351Y-130939D01*
X270470Y-131177D01*
X270470Y-131415D01*
X270351Y-131653D01*
X270232Y-131772D01*
X269875Y-131891D01*
X268803Y-131891D02*
X269875Y-131891D01*
X270232Y-132010D01*
X270351Y-132129D01*
X270470Y-132367D01*
X270470Y-132724D01*
X270351Y-132962D01*
X270232Y-133081D01*
X269875Y-133200D01*
X268803Y-133200D01*
X271624Y-131534D02*
X271386Y-131653D01*
X271148Y-131891D01*
X271029Y-132248D01*
X271029Y-132486D01*
X271148Y-132843D01*
X271386Y-133081D01*
X271624Y-133200D01*
X271981Y-133200D01*
X272219Y-133081D01*
X272457Y-132843D01*
X272576Y-132486D01*
X272576Y-132248D01*
X272457Y-131891D01*
X272219Y-131653D01*
X271981Y-131534D01*
X271624Y-131534D01*
X274552Y-131534D02*
X274552Y-133200D01*
X274552Y-131891D02*
X274314Y-131653D01*
X274076Y-131534D01*
X273719Y-131534D01*
X273481Y-131653D01*
X273243Y-131891D01*
X273124Y-132248D01*
X273124Y-132486D01*
X273243Y-132843D01*
X273481Y-133081D01*
X273719Y-133200D01*
X274076Y-133200D01*
X274314Y-133081D01*
X274552Y-132843D01*
X275219Y-131534D02*
X275219Y-133200D01*
X275219Y-132248D02*
X275338Y-131891D01*
X275576Y-131653D01*
X275814Y-131534D01*
X276171Y-131534D01*
X277825Y-130701D02*
X277825Y-133200D01*
X277825Y-131891D02*
X277587Y-131653D01*
X277349Y-131534D01*
X276992Y-131534D01*
X276754Y-131653D01*
X276516Y-131891D01*
X276397Y-132248D01*
X276397Y-132486D01*
X276516Y-132843D01*
X276754Y-133081D01*
X276992Y-133200D01*
X277349Y-133200D01*
X277587Y-133081D01*
X277825Y-132843D01*
D18*
X268457Y-145100D02*
X268229Y-145176D01*
X268076Y-145405D01*
X268000Y-145786D01*
X268000Y-146014D01*
X268076Y-146395D01*
X268229Y-146624D01*
X268457Y-146700D01*
X268609Y-146700D01*
X268838Y-146624D01*
X268990Y-146395D01*
X269066Y-146014D01*
X269066Y-145786D01*
X268990Y-145405D01*
X268838Y-145176D01*
X268609Y-145100D01*
X268457Y-145100D01*
X270186Y-145100D02*
X269424Y-146167D01*
X270567Y-146167D01*
X270186Y-145100D02*
X270186Y-146700D01*
X270849Y-146014D02*
X272220Y-146014D01*
X272692Y-145405D02*
X272845Y-145329D01*
X273073Y-145100D01*
X273073Y-146700D01*
X273942Y-145481D02*
X273942Y-145405D01*
X274018Y-145253D01*
X274094Y-145176D01*
X274246Y-145100D01*
X274551Y-145100D01*
X274703Y-145176D01*
X274780Y-145253D01*
X274856Y-145405D01*
X274856Y-145557D01*
X274780Y-145710D01*
X274627Y-145938D01*
X273865Y-146700D01*
X274932Y-146700D01*
X275442Y-145100D02*
X276280Y-145100D01*
X275823Y-145710D01*
X276052Y-145710D01*
X276204Y-145786D01*
X276280Y-145862D01*
X276356Y-146091D01*
X276356Y-146243D01*
X276280Y-146471D01*
X276128Y-146624D01*
X275899Y-146700D01*
X275671Y-146700D01*
X275442Y-146624D01*
X275366Y-146548D01*
X275290Y-146395D01*
X276790Y-145481D02*
X276790Y-145405D01*
X276867Y-145253D01*
X276943Y-145176D01*
X277095Y-145100D01*
X277400Y-145100D01*
X277552Y-145176D01*
X277628Y-145253D01*
X277705Y-145405D01*
X277705Y-145557D01*
X277628Y-145710D01*
X277476Y-145938D01*
X276714Y-146700D01*
X277781Y-146700D01*
X278139Y-145405D02*
X278291Y-145329D01*
X278520Y-145100D01*
X278520Y-146700D01*
X240000Y-145100D02*
X240000Y-146700D01*
X240914Y-146700D01*
X241242Y-145100D02*
X241318Y-145176D01*
X241394Y-145100D01*
X241318Y-145024D01*
X241242Y-145100D01*
X241318Y-145634D02*
X241318Y-146700D01*
X242590Y-145100D02*
X242590Y-146700D01*
X242590Y-145862D02*
X242438Y-145710D01*
X242285Y-145634D01*
X242057Y-145634D01*
X241904Y-145710D01*
X241752Y-145862D01*
X241676Y-146091D01*
X241676Y-146243D01*
X241752Y-146471D01*
X241904Y-146624D01*
X242057Y-146700D01*
X242285Y-146700D01*
X242438Y-146624D01*
X242590Y-146471D01*
X243169Y-145100D02*
X243245Y-145176D01*
X243321Y-145100D01*
X243245Y-145024D01*
X243169Y-145100D01*
X243245Y-145634D02*
X243245Y-146700D01*
X244517Y-145634D02*
X244517Y-146700D01*
X244517Y-145862D02*
X244365Y-145710D01*
X244212Y-145634D01*
X243984Y-145634D01*
X243832Y-145710D01*
X243679Y-145862D01*
X243603Y-146091D01*
X243603Y-146243D01*
X243679Y-146471D01*
X243832Y-146624D01*
X243984Y-146700D01*
X244212Y-146700D01*
X244365Y-146624D01*
X244517Y-146471D01*
X246201Y-145100D02*
X246201Y-146700D01*
X246201Y-145100D02*
X246810Y-146700D01*
X247419Y-145100D02*
X246810Y-146700D01*
X247419Y-145100D02*
X247419Y-146700D01*
X248791Y-145634D02*
X248791Y-146700D01*
X248791Y-145862D02*
X248638Y-145710D01*
X248486Y-145634D01*
X248257Y-145634D01*
X248105Y-145710D01*
X247953Y-145862D01*
X247876Y-146091D01*
X247876Y-146243D01*
X247953Y-146471D01*
X248105Y-146624D01*
X248257Y-146700D01*
X248486Y-146700D01*
X248638Y-146624D01*
X248791Y-146471D01*
X249217Y-145634D02*
X249217Y-146700D01*
X249217Y-146091D02*
X249293Y-145862D01*
X249446Y-145710D01*
X249598Y-145634D01*
X249826Y-145634D01*
X250124Y-145100D02*
X250200Y-145176D01*
X250276Y-145100D01*
X250200Y-145024D01*
X250124Y-145100D01*
X250200Y-145634D02*
X250200Y-146700D01*
X250710Y-145100D02*
X250786Y-145176D01*
X250862Y-145100D01*
X250786Y-145024D01*
X250710Y-145100D01*
X250786Y-145634D02*
X250786Y-146700D01*
D19*
X9105Y24795D02*
D03*
X9105Y26065D02*
D03*
X9105Y27335D02*
D03*
X9105Y28605D02*
D03*
D20*
X14570Y28605D02*
D03*
X14570Y27335D02*
D03*
X14570Y26065D02*
D03*
X14570Y24795D02*
D03*
D24*
X30400Y22900D02*
D03*
X28800Y22900D02*
D03*
D26*
X33743Y1800D02*
D03*
X33743Y900D02*
D03*
X32457Y1750D02*
D03*
X32457Y850D02*
D03*
X31171Y1750D02*
D03*
X31171Y850D02*
D03*
X35028Y1800D02*
D03*
X35028Y900D02*
D03*
X29885Y1750D02*
D03*
X29885Y850D02*
D03*
X28600Y850D02*
D03*
X28600Y1750D02*
D03*
X36400Y1800D02*
D03*
X36400Y900D02*
D03*
X26700Y20150D02*
D03*
X26700Y19250D02*
D03*
X18600Y22250D02*
D03*
X18600Y21350D02*
D03*
X13500Y16850D02*
D03*
X13500Y15950D02*
D03*
D28*
X33450Y9900D02*
D03*
X32550Y9900D02*
D03*
D34*
X32700Y20900D02*
D03*
X32700Y19300D02*
D03*
X34200Y19300D02*
D03*
X34200Y20900D02*
D03*
X22200Y15000D02*
D03*
X22200Y16600D02*
D03*
X1200Y19000D02*
D03*
X1200Y20600D02*
D03*
X2700Y20600D02*
D03*
X2700Y19000D02*
D03*
X5100Y25700D02*
D03*
X5100Y24100D02*
D03*
X16300Y24800D02*
D03*
X16300Y23200D02*
D03*
D35*
X9950Y15950D02*
D03*
X11850Y15950D02*
D03*
X10900Y18250D02*
D03*
D37*
X18500Y28200D02*
D03*
X18500Y24800D02*
D03*
D39*
X31000Y19250D02*
D03*
X31000Y20200D02*
D03*
X31000Y21150D02*
D03*
X28200Y21150D02*
D03*
X28200Y20200D02*
D03*
X28200Y19250D02*
D03*
D40*
X11176Y26700D02*
D03*
D67*
X7030Y23700D02*
D03*
X6330Y25700D02*
D03*
X6330Y24900D02*
D03*
X6330Y24100D02*
D03*
X7030Y24500D02*
D03*
X6330Y27300D02*
D03*
X6330Y28100D02*
D03*
X6330Y28900D02*
D03*
X7030Y26100D02*
D03*
X7030Y27700D02*
D03*
X7030Y25300D02*
D03*
X7030Y28500D02*
D03*
X7030Y26900D02*
D03*
X7030Y29300D02*
D03*
X37000Y15100D02*
D03*
X37000Y8400D02*
D03*
X26900Y15600D02*
D03*
X25500Y27100D02*
D03*
X25500Y26200D02*
D03*
X25500Y25300D02*
D03*
X25510Y24443D02*
D03*
X35100Y9900D02*
D03*
X35438Y8430D02*
D03*
X14500Y22900D02*
D03*
X35100Y11500D02*
D03*
X33700Y12700D02*
D03*
X12100Y20850D02*
D03*
X24500Y4800D02*
D03*
X9900Y10300D02*
D03*
X21400Y20600D02*
D03*
X24467Y21767D02*
D03*
X26000Y21700D02*
D03*
X22300Y21450D02*
D03*
X20700Y21450D02*
D03*
X14500Y15900D02*
D03*
X17400Y5000D02*
D03*
X16100Y6600D02*
D03*
X30000Y10500D02*
D03*
X27000Y10929D02*
D03*
X25457Y7418D02*
D03*
X22100Y6700D02*
D03*
X22200Y8800D02*
D03*
X27900Y14500D02*
D03*
X26700Y18500D02*
D03*
X27600Y17700D02*
D03*
X37400Y900D02*
D03*
X18500Y19500D02*
D03*
X15600Y19500D02*
D03*
X34300Y13800D02*
D03*
X34300Y15400D02*
D03*
X26300Y5800D02*
D03*
X13700Y12925D02*
D03*
X13700Y11850D02*
D03*
X20440Y8800D02*
D03*
X16150Y8740D02*
D03*
X20900Y4900D02*
D03*
X19200Y4800D02*
D03*
X18017Y10927D02*
D03*
X13700Y9700D02*
D03*
X13700Y10775D02*
D03*
X13700Y14000D02*
D03*
X32700Y18400D02*
D03*
X19900Y20650D02*
D03*
X24400Y19600D02*
D03*
X7000Y20000D02*
D03*
X6000Y20000D02*
D03*
X5000Y20000D02*
D03*
X8000Y20000D02*
D03*
X24510Y24443D02*
D03*
X24500Y25300D02*
D03*
X24500Y26200D02*
D03*
X24500Y27100D02*
D03*
X16800Y29000D02*
D03*
X16800Y28100D02*
D03*
X16800Y27200D02*
D03*
X16810Y26343D02*
D03*
X15910Y26343D02*
D03*
X15900Y27200D02*
D03*
X15900Y28100D02*
D03*
X15900Y29000D02*
D03*
X11800Y14800D02*
D03*
X17760Y13150D02*
D03*
X11800Y13900D02*
D03*
X11800Y13000D02*
D03*
X22200Y17500D02*
D03*
X18000Y15600D02*
D03*
X19500Y15700D02*
D03*
X19500Y9600D02*
D03*
X20900Y11100D02*
D03*
X22900Y11100D02*
D03*
X21900Y11100D02*
D03*
X23900Y11100D02*
D03*
X20900Y14100D02*
D03*
X21900Y13100D02*
D03*
X20900Y12100D02*
D03*
X20900Y13100D02*
D03*
X21900Y14100D02*
D03*
X21900Y12100D02*
D03*
X22900Y12100D02*
D03*
X22900Y13100D02*
D03*
X22900Y14100D02*
D03*
X23900Y13100D02*
D03*
X23900Y14100D02*
D03*
X23900Y12100D02*
D03*
X1700Y4400D02*
D03*
X2500Y4400D02*
D03*
X7200Y18100D02*
D03*
X7200Y16500D02*
D03*
X7200Y17300D02*
D03*
X11800Y5300D02*
D03*
X4100Y4400D02*
D03*
X900Y4400D02*
D03*
X3300Y4400D02*
D03*
X2000Y17600D02*
D03*
X1000Y17600D02*
D03*
D73*
X7030Y27700D02*
X8100Y27700D01*
X7030Y25300D02*
X8425Y25300D01*
D74*
X13300Y32200D02*
D03*
X15840Y32200D02*
D03*
X23460Y32200D02*
D03*
X26000Y32200D02*
D03*
X28540Y32200D02*
D03*
X20920Y32200D02*
D03*
X18380Y32200D02*
D03*
D75*
X31080Y32200D02*
D03*
D76*
X40300Y27200D02*
D03*
X40300Y22120D02*
D03*
D77*
X1150Y22230D02*
D03*
X5880Y22230D02*
D03*
X1150Y30770D02*
D03*
X5880Y30770D02*
D03*
D78*
X40400Y15940D02*
D03*
X40400Y13400D02*
D03*
X40400Y5780D02*
D03*
X40400Y8320D02*
D03*
X40400Y10860D02*
D03*
X1830Y2100D02*
D03*
X7730Y2100D02*
D03*
D79*
X40400Y3240D02*
D03*
D80*
X35236Y5896D02*
D03*
X30156Y5896D02*
D03*
X32696Y3356D02*
D03*
X34492Y7692D02*
D03*
X30900Y4100D02*
D03*
X34492Y4100D02*
D03*
X30900Y7692D02*
D03*
D81*
X32696Y8436D02*
D03*
D82*
X4370Y2100D02*
D03*
X10270Y2100D02*
D03*
D83*
X8000Y13100D02*
D03*
D84*
X27025Y24675D02*
D03*
X32575Y24675D02*
D03*
X32575Y26925D02*
D03*
X27025Y26925D02*
D03*
D85*
X32575Y25800D02*
D03*
X27025Y25800D02*
D03*
D86*
X14850Y20700D02*
D03*
X17150Y21650D02*
D03*
X17150Y19750D02*
D03*
D87*
X10300Y19800D02*
D03*
X10300Y22800D02*
D03*
X12700Y22800D02*
D03*
X12700Y19800D02*
D03*
M02*
